<?xml version="1.0" standalone="no"?>
<!DOCTYPE svg PUBLIC "-//W3C//DTD SVG 1.1//EN" "http://www.w3.org/Graphics/SVG/1.1/DTD/svg11.dtd" >
<svg xmlns="http://www.w3.org/2000/svg">
<metadata></metadata>
<defs>
<font id="playfair_display_scblack" horiz-adv-x="1694" >
<font-face units-per-em="2048" ascent="1638" descent="-410" />
<missing-glyph horiz-adv-x="457" />
<glyph horiz-adv-x="0" />
<glyph horiz-adv-x="682" />
<glyph unicode="&#xd;" horiz-adv-x="0" />
<glyph unicode=" "  horiz-adv-x="457" />
<glyph unicode="&#x09;" horiz-adv-x="457" />
<glyph unicode="&#xa0;" horiz-adv-x="457" />
<glyph unicode="!" horiz-adv-x="627" d="M95 1343q0 78 27.5 136.5t77 90.5t112.5 32q57 0 107 -32.5t80 -91.5t30 -135q0 -79 -20.5 -166.5t-62.5 -226.5q-51 -171 -79.5 -293t-35.5 -256h-37q-7 135 -35.5 257t-79.5 291q-43 144 -63.5 230t-20.5 164zM110 147q0 87 52 132t151 45q98 0 150.5 -45t52.5 -132 q0 -86 -52.5 -131t-150.5 -45q-99 0 -151 44.5t-52 131.5z" />
<glyph unicode="&#x22;" horiz-adv-x="854" d="M60 1329q0 49 21.5 87t59.5 58.5t85 20.5q73 0 119.5 -45t46.5 -119q0 -46 -14.5 -83t-48.5 -102q-56 -102 -88 -188h-29q-29 75 -84 174q-36 67 -52 108t-16 89zM61 958zM459 1329q0 49 21.5 87t59.5 58.5t85 20.5q73 0 119.5 -45t46.5 -119q0 -46 -14.5 -83t-48.5 -102 q-56 -102 -88 -188h-29q-29 75 -84 174q-36 67 -52 108t-16 89z" />
<glyph unicode="#" horiz-adv-x="1247" d="M69 506l8 41h301l66 342h-300l7 41h301l59 303h41l-59 -303h342l59 303h41l-59 -303h301l-7 -41h-302l-66 -342h301l-8 -41h-301l-58 -299h-41l58 299h-342l-58 -299h-41l58 299h-301zM419 547h342l66 342h-342z" />
<glyph unicode="$" horiz-adv-x="1245" d="M95 -14q8 139 8 594h48q17 -200 58 -316t114.5 -171t191.5 -68v553l-45 32q-119 79 -194.5 143.5t-123 148.5t-47.5 190q0 113 54.5 194t147 127t208.5 60v247h41v-243q38 2 57 2q63 0 119 -8v249h41v-256q85 -18 172 -67q29 -16 43 -22.5t27 -6.5q19 0 29 21.5t16 68.5 h47q-10 -147 -10 -500h-47q-29 200 -91 312t-186 146v-529l72 -47q108 -71 178 -133t112 -143t42 -187q0 -164 -111 -264t-293 -130v-253h-41v247q-54 -6 -112 -6q-24 0 -64 2v-243h-41v247q-102 12 -205 58l-24 10q-8 3 -30.5 12.5t-39 14t-29.5 4.5q-18 0 -28 -21t-17 -69 h-47zM415 1268q0 -34 4.5 -57t26.5 -55.5t69 -75.5v328q-100 -39 -100 -140zM556 22q38 -2 61 -2q67 0 115 9v390q-71 55 -176 130v-527zM556 1045q75 -61 176 -130v509q-36 6 -76 6q-60 0 -100 -10v-375zM773 38q127 38 127 152q0 34 -6.5 57t-34 56t-86.5 82v-347z" />
<glyph unicode="%" horiz-adv-x="1473" d="M65 1214q0 101 46 179.5t126 122t180 43.5q104 0 183 -40t123 -115t44 -179q0 -102 -45.5 -180t-125 -121t-179.5 -43q-104 0 -183.5 39.5t-124 115t-44.5 178.5zM124 -86l1198 1774l39 -27l-1198 -1774zM296 1217q0 -147 33 -223t92 -76q115 0 115 303q0 148 -32 224.5 t-91 76.5q-117 0 -117 -305zM704 305q0 101 46 179t126 121.5t180 43.5q104 0 183 -40t123 -115t44 -179q0 -101 -45.5 -179.5t-125.5 -121.5t-179 -43q-104 0 -183.5 40t-124 115t-44.5 179zM935 307q0 -146 33 -222.5t92 -76.5q115 0 115 303q0 148 -32 224.5t-91 76.5 q-117 0 -117 -305z" />
<glyph unicode="&#x26;" horiz-adv-x="1921" d="M67 481q0 142 77.5 239t176.5 147.5t186 70.5q-113 41 -180.5 99.5t-67.5 154.5t68.5 157t171 88t209.5 27q75 0 122 -6.5t91 -21.5q63 -22 109 -66.5t46 -116.5q0 -46 -25 -81t-67.5 -54.5t-93.5 -19.5q-78 0 -127 36.5t-49 106.5q0 58 40 106t105 64q-46 16 -121 16 t-135.5 -31.5t-96.5 -95.5t-36 -157q0 -107 64 -193q66 19 106 19q36 0 54 -16.5t18 -43.5q0 -20 -17 -32.5t-41 -12.5q-52 0 -118 58q-90 -65 -137.5 -141t-47.5 -187q0 -192 159 -280.5t470 -88.5q140 0 274 39t221 117t87 188q0 64 -16 120t-76 100q-80 -17 -138 -25 q-91 -14 -147 -25q-154 -28 -246 -54.5t-139 -64t-47 -92.5q0 -48 35 -86t91 -59t117 -21q14 0 56 5q-58 21 -83.5 62t-25.5 91q0 73 55.5 113.5t143.5 40.5q90 0 140 -42.5t50 -115.5q0 -98 -84.5 -145t-236.5 -47q-99 0 -175.5 31.5t-119.5 94t-43 152.5 q0 186 147.5 286.5t425.5 141.5q26 3 87 14q46 9 91 15q132 22 216.5 46.5t132 63t47.5 97.5q0 51 -33.5 90t-86 60.5t-108.5 21.5q-23 0 -55 -4q61 -22 94 -65t33 -89q0 -73 -53.5 -112.5t-141.5 -39.5q-90 0 -142 43t-52 115q0 88 69 140.5t207 52.5q104 0 181.5 -35 t120 -102t42.5 -160q0 -154 -98.5 -245t-293.5 -140q63 -43 100.5 -127t37.5 -189q0 -153 -97.5 -268.5t-270.5 -178.5t-393 -63q-257 0 -439.5 61.5t-278 176.5t-95.5 272z" />
<glyph unicode="'" horiz-adv-x="455" d="M60 1329q0 49 21.5 87t59.5 58.5t85 20.5q73 0 119.5 -45t46.5 -119q0 -46 -14.5 -83t-48.5 -102q-56 -102 -88 -188h-29q-29 75 -84 174q-36 67 -52 108t-16 89z" />
<glyph unicode="(" horiz-adv-x="684" d="M59 0zM60 639q0 -341 139 -587.5t414 -424.5l31 25q-117 234 -172 467.5t-55 519.5q0 285 56 522.5t171 464.5l-31 25q-275 -178 -414 -424.5t-139 -587.5z" />
<glyph unicode=")" horiz-adv-x="684" d="M40 -348q117 234 172 467.5t55 519.5q0 285 -56 522.5t-171 464.5l31 25q275 -178 414 -424.5t139 -587.5t-139 -587.5t-414 -424.5z" />
<glyph unicode="*" horiz-adv-x="969" d="M90 1210q0 33 20 66q34 63 93 63q30 0 60 -18q32 -18 61.5 -51.5t77.5 -99.5q61 -81 73 -95l-45 109q-33 78 -47.5 120t-14.5 78q0 57 34 84t82 27q49 0 82 -27t33 -84q0 -35 -13.5 -74.5t-45.5 -115.5q-29 -66 -47 -114q19 24 72 94q50 66 79.5 99.5t59.5 51.5 q32 18 59 18q59 0 94 -63q21 -34 21 -68q0 -55 -58 -88q-31 -18 -72.5 -26.5t-123.5 -17.5q-145 -20 -119 -16q65 -10 113 -15q85 -11 128.5 -19.5t73.5 -26.5q59 -33 59 -89q0 -33 -20 -66q-36 -63 -93 -63q-30 0 -60 18q-31 18 -58.5 49.5t-79.5 99.5q-40 55 -75 98 l45 -109q33 -77 48 -120t15 -80q0 -57 -33.5 -83.5t-81.5 -26.5q-50 0 -83 26.5t-33 83.5q0 37 14.5 79t47.5 119q10 25 21.5 52t23.5 56q7 9 -72 -92q-49 -67 -79 -101.5t-61 -52.5t-60 -18q-30 0 -54 18t-39 45q-21 34 -21 68q0 54 58 87q31 18 73 26.5t125 17.5 q146 20 122 16q-58 8 -115 15q-87 11 -131 19.5t-74 26.5q-59 33 -59 90zM483 1061l1 -1l1 1h-2z" />
<glyph unicode="+" horiz-adv-x="1157" d="M65 696v62h477v483h73v-483h476v-62h-476v-481h-73v481h-477z" />
<glyph unicode="," horiz-adv-x="569" d="M83 147q0 80 53 128.5t139 48.5q54 0 96 -19.5t66 -56.5q23 -30 37 -82t14 -113q0 -107 -55 -197t-162 -139l-18 37q54 25 96 71t58 97q11 36 11 68q0 20 -5 45q-55 -64 -150 -64q-82 0 -131 46.5t-49 129.5z" />
<glyph unicode="-" horiz-adv-x="961" d="M110 455v202h739v-202h-739z" />
<glyph unicode="." horiz-adv-x="578" d="M85 147q0 87 52 132t151 45q98 0 150.5 -45t52.5 -132q0 -86 -52.5 -131t-150.5 -45q-99 0 -151 44.5t-52 131.5z" />
<glyph unicode="/" horiz-adv-x="750" d="M62 -29l558 1508h67l-557 -1508h-68z" />
<glyph unicode="0" horiz-adv-x="1382" d="M81 516q0 162 77.5 293t218.5 207t324 76q174 0 310 -68t212 -191.5t76 -283.5q0 -163 -78 -295t-219 -207.5t-323 -75.5q-172 0 -308 67.5t-213 191.5t-77 286zM464 522q0 -176 31 -291.5t83.5 -169t118.5 -53.5q64 0 114 64.5t78 185.5t28 285q0 175 -31.5 290 t-84 168.5t-118.5 53.5q-64 0 -113.5 -64t-77.5 -184.5t-28 -284.5z" />
<glyph unicode="1" horiz-adv-x="803" d="M73 0v43q89 0 132.5 36.5t43.5 131.5v504q0 98 -15.5 144.5t-51.5 61.5t-109 15v45q197 3 323 26.5t221 77.5v-895q0 -57 11 -89t36 -45t68 -13v-43q-8 0 -40 2q-183 6 -242 6q-71 0 -317 -6q-46 -2 -60 -2z" />
<glyph unicode="2" horiz-adv-x="1133" d="M73 0v43q31 31 90 83q118 105 199.5 191t142.5 198t61 233q0 104 -44.5 152t-137.5 48q-87 0 -152.5 -34.5t-121.5 -102.5l-35 25q80 120 205.5 188t322.5 68q112 0 195 -31t127.5 -90.5t44.5 -141.5q0 -83 -51 -151t-123 -119t-191 -120q-79 -46 -126 -76t-83 -62h463 q56 0 83 7.5t37.5 24.5t16.5 52h47q0 -263 9 -395q-46 10 -305 10h-674z" />
<glyph unicode="3" horiz-adv-x="1049" d="M48 -266q129 5 259.5 60.5t217 160t86.5 246.5q0 79 -25.5 141.5t-73.5 99t-114 41.5q-42 -18 -64.5 -26t-47.5 -8q-21 0 -31 7t-10 25q0 24 20.5 35.5t52.5 11.5q-1 0 44 -3l28 -3q158 104 158 260q0 89 -48.5 134t-135.5 45q-79 0 -148 -38t-117 -108l-37 21 q71 117 179 186.5t288 69.5q112 0 200 -28.5t138 -82.5t50 -127q0 -77 -56 -146t-166.5 -119.5t-267.5 -72.5q25 2 74 2q147 0 257.5 -38t171 -109t60.5 -168q0 -151 -139.5 -267.5t-358 -180.5t-444.5 -64v43z" />
<glyph unicode="4" horiz-adv-x="1126" d="M4 49v43l830 1000h32v-783h13q56 0 83 7.5t38 24.5t16 52h47q0 -247 8 -354q-23 5 -205 9v-337h-286v338h-576zM240 309h340v412z" />
<glyph unicode="5" horiz-adv-x="1001" d="M40 -266q133 1 253 57.5t194.5 162t74.5 245.5q0 127 -55.5 194.5t-163.5 67.5q-60 0 -106 -19t-91 -57l-32 23l82 661q40 -8 110 -8h408q46 0 69 14.5t27 48.5h47q0 -262 8 -374q-44 10 -284 10h-381l-39 -320q57 43 148 69t208 26q140 0 235.5 -43.5t142 -117.5 t46.5 -167q0 -152 -131.5 -268t-340 -179t-429.5 -63v37z" />
<glyph unicode="6" horiz-adv-x="1210" d="M85 555q0 285 141.5 483.5t346.5 305t411 137.5l8 -41q-137 -43 -234.5 -106t-172.5 -193.5t-102 -349.5q76 114 251 114q118 0 215 -54.5t153 -154.5t56 -233q0 -154 -74.5 -265t-200.5 -169t-276 -58q-162 0 -279.5 69t-180 200t-62.5 315zM468 535q0 -185 23.5 -302 t60.5 -169t78 -52q39 0 72 45t53 142t20 245q0 208 -39 305t-104 97q-40 0 -85.5 -34.5t-72.5 -103.5q-6 -79 -6 -173z" />
<glyph unicode="7" horiz-adv-x="999" d="M42 1071q46 -10 305 -10h660v-43q-28 -59 -95 -177q-83 -147 -137 -257t-93.5 -250t-39.5 -289q2 -21 6 -83t4 -85q0 -47 -20 -88t-62 -66.5t-104 -25.5q-93 0 -139.5 59t-46.5 164q0 109 60.5 228t144 224t214.5 251q81 90 120 137h-584q-56 0 -83.5 -7.5t-38 -24.5 t-16.5 -52h-47q0 278 -8 395z" />
<glyph unicode="8" horiz-adv-x="1204" d="M75 326q0 234 336 371q-83 75 -140 139.5t-93 140t-36 160.5q0 115 65.5 192t173 113.5t234.5 36.5q132 0 233 -38t156.5 -104t55.5 -149q0 -93 -72.5 -162.5t-224.5 -137.5l33 -30q113 -104 179 -175t112.5 -155.5t46.5 -173.5q0 -109 -70.5 -196.5t-194.5 -137 t-278 -49.5q-141 0 -258.5 41.5t-187.5 121.5t-70 192zM378 367q0 -359 223 -359q89 0 131.5 52.5t42.5 136.5t-41.5 159.5t-102 137t-163.5 152.5q-11 11 -25 22q-65 -104 -65 -301zM486 1305q0 -95 64 -186t183 -203q21 50 30.5 125.5t9.5 136.5q0 126 -45 195t-125 69 q-58 0 -87.5 -37.5t-29.5 -99.5z" />
<glyph unicode="9" horiz-adv-x="1192" d="M46 600q0 154 74.5 265t200.5 169t276 58q162 0 279.5 -69t180 -200t62.5 -315q0 -253 -138 -430.5t-339.5 -273t-400.5 -119.5l-9 41q125 35 217.5 88.5t164.5 162t102 288.5q-77 -107 -246 -107q-118 0 -214.5 54.5t-153 154.5t-56.5 233zM429 618q0 -207 39.5 -304 t103.5 -97q39 0 83.5 32.5t71.5 97.5q9 82 9 181q0 185 -23.5 302t-60.5 169t-78 52q-39 0 -71.5 -45t-53 -142.5t-20.5 -245.5z" />
<glyph unicode=":" horiz-adv-x="627" d="M110 147q0 87 52 132t151 45q98 0 150.5 -45t52.5 -132q0 -86 -52.5 -131t-150.5 -45q-99 0 -151 44.5t-52 131.5zM110 915q0 87 52 132t151 45q98 0 150.5 -45t52.5 -132q0 -86 -52.5 -131t-150.5 -45q-99 0 -151 44.5t-52 131.5zM111 0z" />
<glyph unicode=";" horiz-adv-x="623" d="M108 147q0 80 53 128.5t139 48.5q54 0 96 -19.5t66 -56.5q23 -30 37 -82t14 -113q0 -107 -55 -197t-162 -139l-18 37q54 25 96 71t58 97q11 36 11 68q0 20 -5 45q-55 -64 -150 -64q-82 0 -131 46.5t-49 129.5zM108 915q0 87 52 132t151 45q98 0 150.5 -45t52.5 -132 q0 -86 -52.5 -131t-150.5 -45q-99 0 -151 44.5t-52 131.5zM109 0z" />
<glyph unicode="&#x3c;" horiz-adv-x="1225" d="M54 727l998 465l34 -74l-837 -391l837 -391l-34 -74z" />
<glyph unicode="=" horiz-adv-x="1284" d="M128 553v61h1026v-61h-1026zM128 840v61h1026v-61h-1026z" />
<glyph unicode="&#x3e;" horiz-adv-x="1225" d="M138 262zM139 336l34 -74l998 465l-998 465l-34 -74l837 -391z" />
<glyph unicode="?" horiz-adv-x="1106" d="M58 1333q0 70 34.5 116t96.5 81q129 72 324 72q158 0 278.5 -44.5t187.5 -128t67 -196.5q0 -168 -151 -284t-413 -171v-299h-41v318q97 48 149 108.5t70.5 129.5t18.5 159q0 186 -61 276.5t-166 90.5q-58 0 -100.5 -11t-61.5 -28q67 -25 100 -68.5t33 -112.5 q0 -48 -24.5 -87t-69.5 -62t-103 -23q-49 0 -87.5 22.5t-59.5 60.5t-21 81zM263 147q0 87 52 132t151 45q98 0 150.5 -45t52.5 -132q0 -86 -52.5 -131t-150.5 -45q-99 0 -151 44.5t-52 131.5z" />
<glyph unicode="@" horiz-adv-x="1819" d="M85 293q0 274 135.5 522.5t368 400.5t506.5 152q191 0 339.5 -59.5t234 -185.5t85.5 -318q0 -218 -94.5 -390t-238 -267t-281.5 -95q-172 0 -172 147q0 29 6 60q-97 -207 -281 -207q-111 0 -182.5 68t-71.5 211q0 140 67.5 292t181 253.5t243.5 101.5q68 0 109.5 -36.5 t56.5 -93.5l20 101q193 0 309 29l-155 -731q-9 -42 -10 -67q-1 -4 -1 -13q0 -43 27 -43q13 0 33 10q95 45 184.5 137t149 229t59.5 306q0 182 -82 299t-220.5 171t-313.5 54q-252 0 -476 -142.5t-359.5 -381t-135.5 -510.5q0 -204 80.5 -336t223 -193t331.5 -61 q237 0 422 111l14 -27q-79 -56 -192.5 -88.5t-245.5 -32.5q-202 0 -353 66.5t-236 206t-85 350.5zM761 328q0 -86 17 -119t52 -33q53 0 95.5 59t83.5 181l71 352q1 46 -17.5 84.5t-53.5 38.5q-51 0 -110 -83t-98.5 -214t-39.5 -266z" />
<glyph unicode="A" horiz-adv-x="1417" d="M-43 0v41q50 8 95.5 63t92.5 177l455 1169q44 -4 108 -4t107 4l496 -1278q26 -66 58 -97.5t63 -33.5v-41q-148 6 -373 6q-234 0 -344 -6v41q77 3 110.5 19t33.5 56q0 31 -25 97l-122 336h-413l-35 -92q-66 -172 -66 -267q0 -84 46.5 -115t138.5 -34v-41q-153 6 -268 6 q-97 0 -158 -6zM315 590h383l-186 512z" />
<glyph unicode="B" horiz-adv-x="1442" d="M56 0v41q66 3 95.5 16t40 48t10.5 112v1016q0 77 -11 112t-40.5 48t-94.5 16v41q117 -6 353 -6q40 0 235 3l94 1q182 0 306.5 -40.5t186.5 -113t62 -168.5q0 -76 -52.5 -152t-159.5 -133.5t-261 -76.5v-4q200 -10 330.5 -63.5t190 -132t59.5 -167.5q0 -200 -160.5 -298.5 t-454.5 -98.5l-100 2q-138 4 -272 4q-240 0 -357 -6zM617 217q0 -74 10.5 -109t38 -48t85.5 -13q219 0 219 359q0 161 -77.5 245t-246.5 84h-29v-518zM617 770h56q111 0 154.5 90.5t43.5 243.5q0 155 -33 230t-110 75q-47 0 -70.5 -14.5t-32 -51.5t-8.5 -110v-463z" />
<glyph unicode="C" horiz-adv-x="1468" d="M73 713q0 226 98.5 400t274 270t401.5 96q122 0 208.5 -35t168.5 -98q23 -18 40 -18q42 0 52 122h47q-8 -145 -8 -512h-47q-10 109 -28.5 182.5t-56.5 132t-104 101.5q-94 61 -190 61q-147 0 -232.5 -103.5t-119 -258.5t-33.5 -332t33.5 -332t119 -258.5t232.5 -103.5 q96 0 190 61q66 41 104 101t56.5 140.5t28.5 202.5h47q0 -381 8 -532h-47q-5 64 -16.5 92.5t-33.5 28.5q-16 0 -42 -17q-61 -43 -112.5 -70.5t-117.5 -45t-149 -17.5q-232 0 -406 88t-270 255.5t-96 398.5z" />
<glyph unicode="D" horiz-adv-x="1661" d="M56 0v41q66 3 95.5 16t40 48t10.5 112v1016q0 77 -11 112t-40.5 48t-94.5 16v41q149 -7 280 -7l73 1l90 2q168 4 239 4q425 0 635.5 -181t210.5 -528q0 -223 -103 -390.5t-297.5 -259t-463.5 -91.5q-51 0 -128 3q-183 3 -179 3q-240 0 -357 -6zM617 213q0 -74 12 -110.5 t44.5 -51t97.5 -14.5q203 0 293 175t90 521q0 347 -93 513.5t-292 166.5q-64 0 -96 -14.5t-44 -51.5t-12 -110v-1024z" />
<glyph unicode="E" horiz-adv-x="1331" d="M56 0v41q66 3 95.5 16t40 48t10.5 112v1016q0 77 -11 112t-40.5 48t-94.5 16v41q238 -6 717 -6q301 0 428 6q-14 -192 -14 -344q0 -95 6 -148h-47q-36 238 -136.5 341.5t-240.5 103.5h-27q-56 0 -81 -9t-34.5 -35.5t-9.5 -84.5v-524h21q73 0 131.5 41t96.5 103t51 126h47 q-8 -120 -8 -199l1 -92q0 -88 13 -291h-47q-13 77 -51.5 138.5t-98.5 97t-135 35.5h-21v-533q0 -59 9.5 -85t34.5 -35t81 -9h68q74 0 148.5 47t136 155.5t92.5 282.5h47q-6 -73 -6 -188q0 -209 14 -344q-139 6 -469 6q-479 0 -717 -6z" />
<glyph unicode="F" horiz-adv-x="1245" d="M56 0v41q66 3 95.5 16t40 48t10.5 112v1016q0 77 -11 112t-40.5 48t-94.5 16v41q238 -6 717 -6q301 0 428 6q-14 -192 -14 -344q0 -95 6 -148h-47q-50 237 -151 341t-226 104h-27q-56 0 -81 -9t-34.5 -35.5t-9.5 -84.5v-524h21q73 0 131.5 41t96.5 103t51 126h47 q-8 -120 -8 -199l1 -92q0 -88 13 -291h-47q-13 77 -51.5 138.5t-98.5 97t-135 35.5h-21v-471q0 -86 17.5 -125.5t64 -52.5t146.5 -13v-47q-20 0 -31 1q-235 5 -391 5q-95 0 -267 -4z" />
<glyph unicode="G" horiz-adv-x="1548" d="M73 713q0 226 101 400t281.5 270t411.5 96q132 0 225.5 -35t172.5 -98q20 -19 41 -19t33 29.5t18 93.5h47q-8 -145 -8 -512h-47q-10 107 -29 181t-57 132t-103 103q-42 29 -99 45t-112 16q-147 0 -238 -103.5t-129 -261t-38 -329.5q0 -357 87.5 -533t241.5 -176 q64 0 101 25q43 30 43 102v205q0 103 -16 150.5t-58 65.5t-133 22v41q129 -7 391 -7q218 0 316 7v-41q-38 -4 -54.5 -16.5t-23 -47.5t-6.5 -112v-406h-41q-2 43 -18.5 80t-45.5 37q-43 0 -139 -47q-204 -99 -346 -99q-254 0 -426 87.5t-258 253.5t-86 401z" />
<glyph unicode="H" horiz-adv-x="1698" d="M56 0v41q66 3 95.5 16t40 48t10.5 112v1016q0 77 -11 112t-40.5 48t-94.5 16v41q117 -6 365 -6q222 0 342 6v-41q-66 -3 -95.5 -16t-40 -48t-10.5 -112v-483h461v483q0 77 -10.5 112t-40 48t-94.5 16v41q126 -6 362 -6q234 0 344 6v-41q-66 -3 -95 -16t-39.5 -48 t-10.5 -112v-1016q0 -77 11 -112t40 -48t94 -16v-41q-109 6 -344 6q-236 0 -362 -6v41q66 3 95 16t39.5 47.5t10.5 112.5v492h-461v-492q0 -77 11 -112t40.5 -48t94.5 -16v-41q-120 6 -342 6q-248 0 -365 -6z" />
<glyph unicode="I" horiz-adv-x="821" d="M56 0v41q66 3 95.5 16t40 48t10.5 112v1016q0 77 -11 112t-40.5 48t-94.5 16v41q117 -6 365 -6q222 0 342 6v-41q-66 -3 -95.5 -16t-40 -48t-10.5 -112v-1016q0 -77 11 -112t40.5 -48t94.5 -16v-41q-120 6 -342 6q-248 0 -365 -6z" />
<glyph unicode="J" horiz-adv-x="799" d="M-334 -193q0 72 55 115t146 43q86 0 135 -38.5t49 -112.5q0 -48 -29.5 -90t-89.5 -64q13 -2 37 -2q65 0 112 36.5t69 92.5q21 58 30 120t11 141.5t2 248.5v936q0 77 -11 112t-40.5 48t-94.5 16v41q111 -6 344 -6q237 0 363 6v-41q-66 -3 -95.5 -16t-40 -48t-10.5 -112 v-750l1 -168q0 -252 -36 -366q-31 -96 -109.5 -171.5t-198 -119t-267.5 -43.5q-150 0 -229 39q-103 51 -103 153z" />
<glyph unicode="K" horiz-adv-x="1544" d="M56 0v41q66 3 95.5 16t40 48t10.5 112v1016q0 77 -11 112t-40.5 48t-94.5 16v41q117 -6 365 -6q222 0 342 6v-41q-66 -3 -95.5 -16t-40 -48t-10.5 -112v-462q82 6 159.5 61t191.5 182l69 78q91 102 91 184q0 60 -47 96t-121 39v39q171 -6 346 -6q123 0 206 6v-39 q-178 -48 -335 -225l-201 -228l475 -792q28 -46 55 -74t70 -51v-41q-173 6 -369 6q-151 0 -293 -6v41q65 3 91.5 11.5t26.5 27.5q0 16 -21 53l-297 502q-30 50 -49 68.5t-48 22.5v-509q0 -77 11 -112t40.5 -48t94.5 -16v-41q-120 6 -342 6q-248 0 -365 -6z" />
<glyph unicode="L" horiz-adv-x="1282" d="M56 0v41q66 3 95.5 16t40 48t10.5 112v1016q0 77 -11 112t-40.5 48t-94.5 16v41q117 -6 365 -6q236 0 362 6v-41q-74 -3 -107.5 -16t-46 -48t-12.5 -112v-1057q0 -58 8 -84.5t29 -35.5t68 -9h68q71 0 155.5 72t151.5 189.5t90 244.5h47q-6 -73 -6 -188q0 -222 14 -365 q-139 6 -469 6q-479 0 -717 -6z" />
<glyph unicode="M" horiz-adv-x="1976" d="M60 0v41q64 14 94.5 44t41 91.5t10.5 183.5v873q0 77 -11 112t-40.5 48t-94.5 16v41q62 -6 170 -6q247 0 424 6l387 -870l336 864h178q237 0 363 6v-41q-66 -3 -95 -16t-39.5 -47.5t-10.5 -112.5v-1016q0 -77 10.5 -112t40 -48t94.5 -16v-41q-126 6 -363 6 q-247 0 -364 -6v41q74 3 107.5 16t46 48t12.5 112v1049l-494 -1264h-33l-577 1315v-916q0 -151 12 -217t54 -97.5t141 -45.5v-41q-82 6 -230 6q-108 0 -170 -6z" />
<glyph unicode="N" horiz-adv-x="1499" d="M60 0v41q64 14 94.5 44t41 91.5t10.5 183.5v873q0 77 -11 112t-40.5 48t-94.5 16v41q62 -6 170 -6q113 0 189 6l837 -885v484q0 151 -12 217t-53.5 97.5t-140.5 45.5v41q83 -6 229 -6q109 0 170 6v-41q-64 -14 -94 -44t-40.5 -91.5t-10.5 -183.5v-1090q-30 3 -67 3 q-36 0 -77 -3l-907 991v-590q0 -151 12 -217t54 -97.5t141 -45.5v-41q-82 6 -230 6q-108 0 -170 -6z" />
<glyph unicode="O" d="M73 713q0 226 98.5 400t274 270t401.5 96q232 0 406 -88t270 -255.5t96 -398.5q0 -226 -98.5 -400t-274.5 -270t-401 -96q-232 0 -406 88t-270 255.5t-96 398.5zM503 721q0 -212 47 -374.5t127 -250.5t176 -88q101 0 177 91.5t117.5 255t41.5 374.5q0 212 -47 374.5 t-127 250.5t-176 88q-101 0 -177 -91.5t-117.5 -255t-41.5 -374.5z" />
<glyph unicode="P" horiz-adv-x="1389" d="M56 0v41q66 3 95.5 16t40 48t10.5 112v1016q0 77 -11 112t-40.5 48t-94.5 16v41q117 -6 353 -6q40 0 235 3l94 1q203 0 341.5 -50.5t207 -141.5t68.5 -212q0 -113 -61 -216.5t-209 -172.5t-392 -69h-76v-348q0 -86 17.5 -125.5t64 -52.5t146.5 -13v-47q-20 0 -31 1 q-235 5 -391 5q-95 0 -267 -4zM617 627h56q144 0 198 106.5t54 288.5q0 199 -45.5 293t-151.5 94q-47 0 -70.5 -14.5t-32 -51.5t-8.5 -110v-606z" />
<glyph unicode="Q" d="M73 713q0 226 98.5 400t274 270t401.5 96q232 0 406 -88t270 -255.5t96 -398.5q0 -221 -94.5 -393t-264.5 -269.5t-388 -103.5q-47 -6 -84.5 -18t-94.5 -34q-74 -30 -131 -46l54 -2q252 -6 321 -6q212 0 352 29q115 24 180.5 63.5t116.5 116.5l39 -11 q-11 -135 -48.5 -231.5t-100.5 -144.5q-46 -35 -114 -53.5t-142 -18.5q-88 0 -176 21t-168.5 52.5t-200.5 85.5q-119 52 -135 58q-40 14 -49 14q-92 -51 -173 -51q-43 0 -69.5 15.5t-26.5 46.5q0 30 28.5 46.5t84.5 16.5q72 0 156 -37q67 17 156 56q60 26 92 37 q-202 20 -352.5 113t-232 252t-81.5 372zM503 721q0 -212 47 -374.5t127 -250.5t176 -88q101 0 177 91.5t117.5 255t41.5 374.5q0 212 -47 374.5t-127 250.5t-176 88q-101 0 -177 -91.5t-117.5 -255t-41.5 -374.5z" />
<glyph unicode="R" horiz-adv-x="1477" d="M56 0v41q66 3 95.5 16t40 48t10.5 112v1016q0 77 -11 112t-40.5 48t-94.5 16v41q117 -6 353 -6q40 0 235 3l94 1q312 0 464.5 -87.5t152.5 -268.5q0 -154 -115 -262.5t-386 -134.5q209 -12 316.5 -76.5t131.5 -190.5l43 -213q15 -75 35.5 -104t56.5 -29q37 0 63 27 l27 -27q-61 -61 -135 -86t-172 -25q-141 0 -219.5 50.5t-96.5 171.5l-31 204q-21 144 -56 217.5t-107 73.5h-93v-471q0 -77 11 -112t40.5 -48t94.5 -16v-41q-120 6 -342 6q-248 0 -365 -6zM617 729h56q100 0 155.5 44t76 118t20.5 178q0 168 -46 254t-151 86 q-47 0 -70.5 -14.5t-32 -51.5t-8.5 -110v-504z" />
<glyph unicode="S" horiz-adv-x="1255" d="M99 -14q9 156 9 594h47q13 -243 101 -395t271 -152q114 0 180 53t66 147q0 81 -36.5 145.5t-98.5 118t-164 121.5q-124 83 -196.5 144t-120 142.5t-47.5 187.5q0 128 69.5 215.5t184.5 129.5t253 42q118 0 191 -22t141 -60q29 -16 43 -22.5t27 -6.5q19 0 29 21.5t16 68.5 h47q-10 -147 -10 -500h-47q-8 117 -53.5 224t-123.5 174t-180 67q-93 0 -151 -50t-58 -140q0 -69 30.5 -120t90 -99t192.5 -140l48 -34q113 -79 180 -138.5t109.5 -139.5t42.5 -185q0 -133 -75 -224.5t-201 -136.5t-281 -45q-126 0 -208.5 20.5t-154.5 55.5q-46 29 -69 29 q-19 0 -29 -21t-17 -69h-47z" />
<glyph unicode="T" horiz-adv-x="1432" d="M46 1450q195 -6 670 -6q473 0 667 6q-14 -227 -14 -406q0 -94 6 -147h-47q-67 269 -173.5 387.5t-229.5 118.5h-2v-1172q0 -86 17.5 -125t63.5 -52t146 -13v-41q-16 0 -24 1q-250 5 -425 5q-154 0 -389 -5q-12 -1 -32 -1v41q100 0 146 13t63.5 52t17.5 125v1172h-2 q-125 0 -230.5 -117.5t-173.5 -388.5h-47q6 53 6 147q0 179 -14 406z" />
<glyph unicode="U" horiz-adv-x="1419" d="M26 1409v41q115 -6 360 -6q241 0 367 6v-41q-74 -3 -107.5 -16t-46 -48t-12.5 -112v-836q0 -133 28 -210.5t84 -110.5t144 -33q195 0 276.5 137.5t81.5 392.5v476q0 151 -12 217t-54 97.5t-141 45.5v41q84 -6 230 -6q108 0 170 6v-41q-64 -14 -94.5 -44t-41 -91.5 t-10.5 -183.5v-494q0 -297 -84 -434q-114 -191 -440 -191q-247 0 -385 99q-68 49 -104.5 121t-50 167t-13.5 232v643q0 78 -10.5 112.5t-39.5 47.5t-95 16z" />
<glyph unicode="V" horiz-adv-x="1419" d="M-33 1409v41q149 -6 373 -6q233 0 344 6v-41q-76 -3 -110 -18t-34 -57q0 -35 25 -97l355 -873l198 558q67 191 67 304q0 177 -167 183v41q153 -6 268 -6q97 0 158 6v-41q-55 -26 -109 -96t-96 -191l-399 -1122q-66 4 -109 4q-42 0 -106 -4l-537 1278q-27 66 -59 97.5 t-62 33.5z" />
<glyph unicode="W" horiz-adv-x="2068" d="M-31 1409v41q149 -6 363 -6q187 0 272 6v-41q-54 -11 -54 -82q0 -46 17 -90l298 -835l179 486l-139 425q-16 50 -41 71.5t-63 24.5v41q138 -6 354 -6q213 0 318 6v-41q-75 -2 -107.5 -18t-32.5 -60q0 -34 21 -94l270 -821l158 506q54 177 54 286q0 103 -45.5 150.5 t-131.5 50.5v41q153 -6 268 -6q97 0 158 6v-41q-121 -59 -191 -287l-344 -1122q-64 4 -108 4q-41 0 -107 -4l-266 813l-289 -813q-64 4 -108 4q-41 0 -107 -4l-475 1278q-24 65 -57 97t-64 34z" />
<glyph unicode="X" horiz-adv-x="1493" d="M-12 1409v43q11 0 49 -2q243 -6 321 -6q119 0 287 7l43 1v-43q-67 0 -97.5 -7.5t-30.5 -27.5q0 -14 15 -35l297 -422l117 144q103 119 103 215q0 57 -37.5 92t-106.5 41v41q117 -6 273 -6q131 0 198 6v-41q-66 -24 -139 -88t-137 -143l-244 -299l518 -734 q31 -43 48 -62.5t34.5 -28.5t44.5 -11v-43l-46 1q-177 7 -304 7q-133 0 -313 -7l-43 -1v43q66 0 96.5 7.5t30.5 27.5q0 14 -15 35l-341 488l-126 -157q-105 -129 -105 -240q0 -70 45.5 -113.5t125.5 -49.5v-41q-117 6 -354 6q-131 0 -199 -6v41q160 67 340 291l246 308 l-467 667q-31 43 -48 62.5t-34.5 28.5t-44.5 11z" />
<glyph unicode="Y" horiz-adv-x="1319" d="M-18 1409v43q126 -12 282 -12q177 0 451 12v-43q-83 0 -124 -8t-41 -39q0 -13 9 -31l292 -562l93 185q97 194 97 305q0 145 -164 152v41q153 -6 268 -6q96 0 158 6v-41q-106 -52 -218 -272l-190 -377v-545q0 -77 11 -112t40 -48t94 -16v-41q-118 6 -352 6q-243 0 -354 -6 v41q66 3 95 16t39.5 47.5t10.5 112.5v377l-379 700q-33 60 -63.5 87.5t-54.5 27.5z" />
<glyph unicode="Z" horiz-adv-x="1243" d="M75 0v41l620 1362h-102q-96 0 -192 -41.5t-170.5 -141t-96.5 -262.5h-47q6 53 6 148q0 152 -14 344q127 -6 428 -6q442 0 641 6v-41l-621 -1362h86q84 0 192.5 48.5t196.5 157.5t107 279h47q-6 -73 -6 -188q0 -209 14 -344q-151 6 -510 6q-399 0 -579 -6z" />
<glyph unicode="[" horiz-adv-x="696" d="M159 -371v1952h452v-39h-84v-1874h84v-39h-452z" />
<glyph unicode="\" horiz-adv-x="750" d="M62 0zM63 1479l557 -1508h68l-558 1508h-67z" />
<glyph unicode="]" horiz-adv-x="696" d="M84 0zM85 -332v-39h452v1952h-452v-39h84v-1874h-84z" />
<glyph unicode="^" horiz-adv-x="1073" d="M93 647q124 74 237 191t187 243h37q71 -124 184.5 -241t239.5 -193l-16 -29q-135 22 -262.5 55.5t-204.5 67.5q-65 -34 -170 -67.5t-215 -55.5z" />
<glyph unicode="_" horiz-adv-x="1268" d="M106 -4h1054v-227h-1054v227zM107 -144z" />
<glyph unicode="`" horiz-adv-x="457" d="M-1 1586q0 58 42 93q37 34 88 34q32 0 63 -14t50 -36q25 -28 38.5 -60t32.5 -94q23 -73 44 -131t59 -133l-23 -18q-97 82 -229 164q-58 37 -83.5 56t-47.5 46q-34 40 -34 93z" />
<glyph unicode="a" horiz-adv-x="1298" d="M-35 0v41q48 8 91 61.5t98 178.5l419 964q31 -4 68 -4q39 0 68 4l491 -1073q61 -128 121 -131v-41q-105 6 -301 6q-248 0 -365 -6v41q63 3 94 21.5t31 58.5q0 37 -26 92l-101 233h-384q-68 -160 -68 -254q0 -83 49.5 -115.5t140.5 -35.5v-41q-153 6 -268 6q-96 0 -158 -6 zM287 487h349l-175 403z" />
<glyph unicode="b" horiz-adv-x="1393" d="M58 0v41q66 3 95.5 16t40 48t10.5 112v811q0 78 -11 113t-40 47.5t-95 15.5v41q99 -6 291 -6q42 0 249 3l101 1q279 0 407 -69.5t128 -210.5q0 -110 -97 -181.5t-317 -113.5v-4q196 -19 310.5 -64t162 -111t47.5 -153q0 -164 -150.5 -250t-442.5 -86l-107 2 q-146 4 -287 4q-196 0 -295 -6zM599 217q0 -75 7 -109.5t26 -47.5t59 -13q124 0 182 75t58 222q0 143 -62.5 216t-199.5 73h-70v-416zM599 668h35q112 0 155.5 71.5t43.5 200.5q0 133 -33.5 198.5t-110.5 65.5q-39 0 -57.5 -14.5t-25.5 -51t-7 -110.5v-360z" />
<glyph unicode="c" horiz-adv-x="1366" d="M71 610q0 195 91 346t248 234.5t349 83.5q90 0 155 -17.5t109.5 -45t95.5 -70.5q25 -20 40 -20q42 0 52 124h48q-9 -118 -9 -430h-47q-15 79 -27 123.5t-29 75.5t-46 63q-57 63 -124.5 99t-139.5 36q-108 0 -188.5 -71.5t-124.5 -205.5t-44 -317q0 -184 48.5 -316.5 t133 -200.5t189.5 -68q75 0 147.5 36t124.5 99q41 50 59.5 108t35.5 175h47q0 -323 8 -451h-47q-10 124 -51 124q-16 0 -41 -20q-75 -62 -162.5 -97.5t-206.5 -35.5q-202 0 -359 75.5t-246 220t-89 343.5z" />
<glyph unicode="d" horiz-adv-x="1561" d="M58 0v41q66 3 95.5 16t40 48t10.5 112v811q0 78 -11 113t-40 47.5t-95 15.5v41q126 -7 232 -7l59 1l102 2q190 4 269 4q383 0 573.5 -154t190.5 -452q0 -193 -93 -337t-269.5 -223t-420.5 -79q-56 0 -143 3q-210 3 -205 3q-196 0 -295 -6zM599 213q0 -75 8.5 -111 t32 -50.5t72.5 -14.5q138 0 217.5 67t112 196t32.5 331q0 199 -35 325t-114.5 189t-214.5 63q-48 0 -71 -14.5t-31.5 -51t-8.5 -110.5v-819z" />
<glyph unicode="e" horiz-adv-x="1268" d="M58 0v41q66 3 95.5 16t40 48t10.5 112v811q0 77 -11 112t-40.5 48t-94.5 16v41q226 -6 676 -6q287 0 408 6q-15 -156 -15 -262q0 -84 7 -127h-48q-41 183 -130 262.5t-226 79.5h-26q-39 0 -61 -8t-33 -31t-11 -69v-443h47q68 0 116.5 35.5t76.5 88t39 106.5h47 q-7 -76 -7 -157l1 -93q0 -100 12 -250h-47q-15 98 -76.5 163.5t-161.5 65.5h-47v-450q0 -46 11 -69.5t33 -31.5t61 -8h47q143 0 238.5 89.5t137.5 293.5h48q-7 -55 -7 -147q0 -113 15 -283q-133 6 -449 6q-450 0 -676 -6z" />
<glyph unicode="f" horiz-adv-x="1180" d="M58 0v41q66 3 95.5 16t40 48t10.5 112v811q0 77 -11 112t-40.5 48t-94.5 16v41q226 -6 676 -6q287 0 408 6q-15 -156 -15 -262q0 -84 7 -127h-48q-41 183 -130 262.5t-226 79.5h-26q-39 0 -61 -8t-33 -31t-11 -69v-443h47q68 0 116.5 35.5t76.5 88t39 106.5h47 q-7 -76 -7 -157l1 -93q0 -100 12 -250h-47q-15 98 -76.5 163.5t-161.5 65.5h-47v-368q0 -78 21.5 -119t69.5 -58t136 -20v-41q-138 6 -403 6q-248 0 -365 -6z" />
<glyph unicode="g" horiz-adv-x="1491" d="M71 598q0 205 98 358t273.5 235.5t402.5 82.5q89 0 155 -17.5t112 -44t110 -71.5q25 -20 41 -20q40 0 51 124h47q-8 -117 -8 -409h-47q-34 161 -103 241q-60 62 -119 96.5t-141 34.5q-141 0 -245.5 -72.5t-161 -205.5t-56.5 -309q0 -314 94 -461.5t281 -147.5q56 0 90 37 q29 35 29 94v201q0 86 -14.5 125t-52 54t-120.5 18v41q173 -7 371 -7q181 0 295 7v-41q-38 -3 -55 -15.5t-23 -47.5t-6 -113v-365h-41q-9 94 -51 94q-36 0 -109 -39q-60 -31 -150 -57.5t-196 -26.5q-234 0 -403 74.5t-258.5 215.5t-89.5 337z" />
<glyph unicode="h" horiz-adv-x="1661" d="M58 0v41q66 3 95.5 16t40 48t10.5 112v811q0 77 -11 112t-40.5 48t-94.5 16v41q105 -6 324 -6q237 0 362 6v-41q-66 -3 -95 -16t-39.5 -47.5t-10.5 -112.5v-381h461v381q0 77 -11 112t-40.5 48t-94.5 16v41q126 -6 363 -6q219 0 324 6v-41q-66 -3 -95.5 -16t-40 -47.5 t-10.5 -112.5v-811q0 -77 11 -112t40.5 -48t94.5 -16v-41q-105 6 -324 6q-237 0 -363 -6v41q66 3 95.5 16t40 48t10.5 112v389h-461v-389q0 -77 11 -112t40 -48t94 -16v-41q-125 6 -362 6q-219 0 -324 -6z" />
<glyph unicode="i" horiz-adv-x="805" d="M58 0v41q66 3 95.5 16t40 48t10.5 112v811q0 77 -11 112t-40.5 48t-94.5 16v41q111 -6 355 -6q219 0 331 6v-41q-66 -3 -95 -16t-39.5 -47.5t-10.5 -112.5v-811q0 -77 10.5 -112t39.5 -48t95 -16v-41q-112 6 -331 6q-244 0 -355 -6z" />
<glyph unicode="j" horiz-adv-x="782" d="M-332 -193q0 72 55 115t146 43q86 0 135 -38.5t49 -112.5q0 -48 -29.5 -90t-89.5 -64q34 -4 56 -4q79 0 137 63q35 38 51.5 110.5t16.5 195.5v1003q0 77 -11 112t-40.5 48t-94.5 16v41q105 -6 324 -6q236 0 362 6v-41q-66 -3 -95 -16t-39.5 -47.5t-10.5 -112.5v-545 l1 -168q0 -252 -36 -366q-30 -96 -105.5 -171.5t-191 -119t-258.5 -43.5q-150 0 -229 39q-103 51 -103 153z" />
<glyph unicode="k" horiz-adv-x="1536" d="M58 0v41q66 3 95.5 16t40 48t10.5 112v811q0 77 -11 112t-40.5 48t-94.5 16v41q117 -6 355 -6q219 0 331 6v-41q-66 -3 -95 -16t-39.5 -47.5t-10.5 -112.5v-363q101 10 180 51t168 126l47 45q97 93 97 176q0 61 -50 100.5t-124 42.5v39q171 -6 364 -6q124 0 207 6v-39 q-71 -18 -148 -65t-149 -117l-205 -200l447 -658q4 -6 26.5 -37.5t46 -51.5t52.5 -36v-41q-172 6 -369 6q-152 0 -293 -6v41q65 3 91.5 11.5t26.5 27.5q0 17 -22 53l-266 389q-33 46 -59 70.5t-68 27.5v-403q0 -77 10.5 -112t39.5 -48t95 -16v-41q-112 6 -331 6 q-238 0 -355 -6z" />
<glyph unicode="l" horiz-adv-x="1227" d="M58 0v41q66 3 95.5 16t40 48t10.5 112v811q0 77 -11 112t-40.5 48t-94.5 16v41q117 -6 365 -6q209 0 321 6v-41q-66 -3 -95 -16t-39.5 -47.5t-10.5 -112.5v-852q0 -55 11 -83t33 -37t61 -9h47q84 0 158.5 44.5t132 144t85.5 256.5h48q-7 -64 -7 -168q0 -130 15 -324 q-133 6 -449 6q-450 0 -676 -6z" />
<glyph unicode="m" horiz-adv-x="1849" d="M44 1204v41q135 -6 416 -6q112 0 188 6l291 -696l279 690h239q222 0 342 6v-41q-74 -3 -107.5 -16t-46 -48t-12.5 -112v-811q0 -77 12.5 -112t46 -48t107.5 -16v-41q-120 6 -342 6q-276 0 -405 -6v41q74 3 107.5 16t46 48t12.5 112v899l-453 -1126h-33l-475 1124v-815 q0 -98 18 -147t64.5 -73t144.5 -38v-41q-100 6 -249 6q-110 0 -170 -6v41q64 14 94 37.5t40.5 72.5t10.5 148v729q0 77 -12.5 112t-46 48t-107.5 16z" />
<glyph unicode="n" horiz-adv-x="1419" d="M60 0v41q65 14 95 37.5t40.5 72.5t10.5 148v729q0 77 -11 112t-40.5 48t-94.5 16v41q62 -6 170 -6q168 0 291 6l654 -745v446q0 99 -18 148t-64.5 72.5t-145.5 37.5v41q102 -6 250 -6q109 0 170 6v-41q-65 -13 -94.5 -37t-40 -72.5t-10.5 -148.5v-946q-36 3 -75 3 q-37 0 -75 -3l-819 940v-641q0 -98 18 -147t64.5 -73t144.5 -38v-41q-100 6 -250 6q-108 0 -170 -6z" />
<glyph unicode="o" horiz-adv-x="1608" d="M71 610q0 196 93 347t260 234t380 83q219 0 384.5 -75.5t256 -219.5t90.5 -344q0 -196 -93.5 -346.5t-260 -234t-379.5 -83.5q-219 0 -384.5 75.5t-256 219.5t-90.5 344zM480 618q0 -182 44 -320.5t119.5 -214t166.5 -75.5q95 0 166.5 78.5t110 219t38.5 321.5 q0 182 -44 321t-119 214t-166 75q-95 0 -166.5 -78.5t-110.5 -219t-39 -321.5z" />
<glyph unicode="p" horiz-adv-x="1329" d="M58 0v41q66 3 95.5 16t40 48t10.5 112v811q0 77 -11 112t-40.5 48t-94.5 16v41q99 -6 291 -6q152 0 262 3l109 1q299 0 437 -86t138 -256q0 -108 -58.5 -196.5t-201 -144.5t-381.5 -56h-55v-287q0 -77 12.5 -112t46 -48t107.5 -16v-41q-138 6 -404 6q-204 0 -303 -6z M599 545h35q144 0 198 89.5t54 244.5q0 167 -40 246t-136 79q-48 0 -71 -14.5t-31.5 -51t-8.5 -110.5v-483z" />
<glyph unicode="q" horiz-adv-x="1610" d="M73 610q0 196 93 347t260 234t380 83q219 0 384.5 -75.5t256 -219.5t90.5 -344q0 -189 -87 -336t-243 -232.5t-358 -94.5q-48 -5 -86.5 -18t-100.5 -38q-89 -37 -147 -51h3q47 0 184 25q180 30 233 30q81 0 153.5 -10t173.5 -29q90 -18 150.5 -26.5t122.5 -8.5 q67 0 106.5 8t62.5 25t42 47l33 -16q-42 -142 -156 -218.5t-287 -76.5q-125 0 -251 25.5t-237 63t-268 98.5l-116 44q-41 -23 -87 -37t-85 -14q-43 0 -69.5 15.5t-26.5 46.5q0 63 112 63q74 0 156 -37q67 17 156 56q47 21 89 36q-193 16 -336.5 95.5t-221.5 217t-78 322.5z M482 618q0 -182 44 -320.5t119.5 -214t166.5 -75.5q95 0 166.5 78.5t110 219t38.5 321.5q0 182 -44 321t-119 214t-166 75q-95 0 -166.5 -78.5t-110.5 -219t-39 -321.5z" />
<glyph unicode="r" horiz-adv-x="1421" d="M58 0v41q66 3 95.5 16t40 48t10.5 112v811q0 78 -11 113t-40 47.5t-95 15.5v41q99 -6 291 -6q42 0 249 3l101 1q596 0 596 -315q0 -132 -117.5 -227t-395.5 -121l53 -7q171 -17 271 -65t126 -154l43 -180q12 -50 32 -70t54 -20q36 0 72 29l28 -27q-56 -57 -125.5 -86 t-175.5 -29q-132 0 -204.5 46.5t-92.5 127.5l-57 232q-13 78 -35 118.5t-54 55t-83 14.5h-35v-348q0 -77 11 -112t40 -48t94 -16v-41q-132 6 -383 6q-204 0 -303 -6zM599 606h55q134 0 183 78.5t49 220.5q0 150 -45 224.5t-152 74.5q-39 0 -57.5 -14.5t-25.5 -51t-7 -110.5 v-422z" />
<glyph unicode="s" horiz-adv-x="1241" d="M97 -14q8 123 8 532h48q10 -157 64 -268t148 -169t222 -58q87 0 149 39t62 118q0 51 -25.5 91.5t-78 81t-148.5 100.5q-138 83 -230.5 152.5t-150 152t-57.5 176.5q0 111 67.5 187t186.5 114.5t274 38.5q173 0 311 -76q32 -18 44.5 -23.5t25.5 -5.5q19 0 29 22t16 69h47 q-10 -133 -10 -459h-47q-19 140 -74 235t-137 142t-183 47q-97 0 -155 -36.5t-58 -96.5q0 -51 36.5 -97.5t96 -89.5t176.5 -117l25 -16q121 -71 199.5 -130t132 -139.5t53.5 -183.5q0 -113 -70.5 -191t-197.5 -117.5t-295 -39.5q-90 0 -161.5 19.5t-155.5 53.5l-23 9 q-54 23 -72 23t-28 -21t-17 -69h-47z" />
<glyph unicode="t" horiz-adv-x="1354" d="M48 1245q182 -6 619 -6q448 0 637 6q-15 -165 -15 -303q0 -123 6 -188h-47q-39 163 -88 260t-114 140.5t-154 43.5h-19v-960q0 -85 16 -124.5t58 -54.5t133 -18v-41q-112 6 -413 6q-297 0 -396 -6v41q91 3 133 18t58 54.5t16 124.5v960h-18q-90 0 -155 -43.5t-114 -140.5 t-88 -260h-47q6 65 6 188q0 134 -14 303z" />
<glyph unicode="u" horiz-adv-x="1374" d="M19 1204v41q111 -6 345 -6q222 0 342 6v-41q-66 -3 -95.5 -16t-40 -47.5t-10.5 -112.5v-514q0 -145 19.5 -240t81.5 -153t182 -58q171 0 241 124t70 345v312q0 151 -12 217.5t-54 98t-141 44.5v41q84 -6 230 -6q122 0 190 6v-41q-73 -13 -107.5 -43.5t-46.5 -92 t-12 -183.5v-330q0 -141 -19.5 -240.5t-64.5 -173.5q-51 -78 -150.5 -124t-224.5 -46q-242 0 -385 90q-78 54 -119 115.5t-57 148t-16 224.5v479q0 77 -11 112t-40.5 48t-94.5 16z" />
<glyph unicode="v" horiz-adv-x="1298" d="M-37 1204v41q105 -6 301 -6q248 0 365 6v-41q-63 -3 -94 -21.5t-31 -58.5q0 -37 26 -92l315 -661l140 346q77 190 77 306q0 174 -169 181v41q153 -6 268 -6q97 0 158 6v-41q-107 -50 -205 -286l-373 -918q-37 5 -67 5t-68 -5l-522 1073q-61 128 -121 131z" />
<glyph unicode="w" horiz-adv-x="1944" d="M-33 1204v41q105 -6 301 -6q219 0 324 6v-41q-35 -3 -55.5 -26.5t-20.5 -62.5q0 -36 19 -83l269 -635l157 401l-113 275q-25 62 -58 95.5t-63 35.5v41q105 -6 301 -6q233 0 344 6v-41q-61 -3 -89.5 -22.5t-28.5 -60.5q0 -34 20 -89l238 -646l122 331q71 193 71 308 q0 173 -165 179v41q153 -6 268 -6q96 0 158 6v-41q-53 -25 -106.5 -95.5t-98.5 -190.5l-338 -918q-37 5 -67 5t-68 -5l-302 736l-281 -736q-38 5 -68 5t-68 -5l-481 1073q-61 128 -121 131z" />
<glyph unicode="x" horiz-adv-x="1360" d="M-2 1204v43l43 -1q168 -7 287 -7q71 0 302 6q36 2 48 2v-43q-67 0 -97.5 -7.5t-30.5 -26.5q0 -14 15 -35l239 -339l52 60q107 123 107 221q0 54 -36 87.5t-102 39.5v41q117 -6 273 -6q131 0 198 6v-41q-59 -24 -123 -74.5t-118 -113.5l-223 -259l432 -612q40 -59 64 -79 t63 -23v-43q-11 0 -45 2q-219 6 -285 6q-127 0 -304 -7l-46 -1v43q68 0 98 7t30 26q0 14 -16 37l-270 382l-100 -116q-92 -109 -92 -191q0 -64 56 -102t148 -45v-41q-117 6 -354 6q-131 0 -199 -6v41q75 40 159 109.5t140 136.5l214 248l-400 567q-28 41 -46 61.5t-36 29.5 t-45 11z" />
<glyph unicode="y" horiz-adv-x="1264" d="M-2 1202v43q126 -12 283 -12q159 0 409 12v-43q-120 0 -120 -52q0 -16 14 -42l253 -459l52 99q102 191 102 305q0 144 -164 151v41q155 -6 269 -6q96 0 157 6v-41q-47 -23 -98.5 -87t-118.5 -185l-176 -332v-362q0 -85 16 -124.5t58 -54.5t133 -18v-41q-114 6 -414 6 q-296 0 -395 -6v41q91 3 133 18t58 54.5t16 124.5v228l-348 621q-33 57 -59.5 83t-59.5 32z" />
<glyph unicode="z" horiz-adv-x="1190" d="M83 0v41l590 1157h-72q-126 0 -215 -42t-149 -135t-95 -247h-47q6 65 6 189q0 125 -14 282q158 -6 530 -6q328 0 478 6v-41l-590 -1157h61q132 0 225.5 45.5t156 147.5t98.5 272h47q-7 -100 -7 -209q0 -121 15 -303q-139 6 -479 6q-371 0 -539 -6z" />
<glyph unicode="{" horiz-adv-x="723" d="M22 594v37h10q64 4 96.5 48t45.5 147t13 302q0 182 50 284t160.5 146t301.5 44v-39q-63 -2 -91.5 -31t-40 -118t-11.5 -286q0 -174 -64.5 -280t-168 -158t-244.5 -78q141 -26 244.5 -78t168 -158.5t64.5 -279.5q0 -204 11.5 -294.5t40 -118.5t91.5 -29v-39 q-193 0 -302.5 42.5t-159.5 146t-50 292.5q0 198 -13 301t-45.5 147.5t-96.5 49.5h-10z" />
<glyph unicode="|" horiz-adv-x="561" d="M157 -399v2156h245v-2156h-245z" />
<glyph unicode="}" horiz-adv-x="723" d="M23 0zM24 -346v-39q193 0 302.5 42.5t159.5 146t50 292.5q0 198 13 301t45.5 147.5t96.5 49.5h10v37h-10q-64 4 -96.5 48t-45.5 147t-13 302q0 182 -50 284t-160.5 146t-301.5 44v-39q63 -2 91.5 -31t40 -118t11.5 -286q0 -174 64.5 -280t168 -158t244.5 -78 q-141 -26 -244.5 -78t-168 -158.5t-64.5 -279.5q0 -204 -11.5 -294.5t-40 -118.5t-91.5 -29z" />
<glyph unicode="~" horiz-adv-x="1395" d="M101 444q10 114 57.5 201.5t119.5 135.5t155 48q55 0 107 -14t95.5 -33.5t107.5 -53.5q91 -48 155 -72.5t137 -24.5q164 0 226 160l36 -7q-10 -114 -57 -201.5t-119 -135.5t-155 -48q-79 0 -147.5 25.5t-162.5 76.5q-91 48 -155 72.5t-137 24.5q-164 0 -226 -160z" />
<glyph unicode="&#xa1;" horiz-adv-x="604" d="M83 -139q0 52 19 119.5t59 182.5q52 148 82.5 260.5t38.5 227.5h36q7 -115 37.5 -224.5t82.5 -257.5q41 -119 60 -186t19 -122q0 -79 -27.5 -134.5t-76.5 -83.5t-111 -28q-65 0 -114.5 29t-77 84.5t-27.5 132.5zM99 915q0 87 52 132t151 45q98 0 150.5 -45t52.5 -132 q0 -86 -52.5 -131t-150.5 -45q-99 0 -151 44.5t-52 131.5z" />
<glyph unicode="&#xa2;" horiz-adv-x="1055" d="M73 610q0 154 57.5 281.5t160.5 216.5t238 131v211h45v-198q93 22 187 22q90 0 155 -17.5t109.5 -45t95.5 -70.5q25 -20 40 -20q42 0 52 124h48q-9 -118 -9 -430h-47q-15 79 -27 123.5t-29 75.5t-46 63q-57 63 -124.5 99t-139.5 36q-84 0 -151 -43t-114 -124v-837 q51 -86 122.5 -130.5t156.5 -44.5q75 0 147.5 36t124.5 99q41 50 59.5 108t35.5 175h47q0 -323 8 -451h-47q-10 124 -51 124q-16 0 -41 -20q-75 -62 -162.5 -97.5t-206.5 -35.5q-99 0 -193 20v-362h-45v373q-139 38 -241.5 120.5t-158.5 206.5t-56 281zM482 618 q0 -179 47 -312v639q-47 -141 -47 -327z" />
<glyph unicode="&#xa3;" horiz-adv-x="1432" d="M62 12q0 34 44.5 62t130.5 45q22 53 29 111t7 160v138v80h-157v41h157v164h-157v41h157v45q0 608 557 608q158 0 246 -45q59 -31 93 -78.5t34 -109.5q0 -50 -22.5 -90.5t-63.5 -64t-94 -23.5q-84 0 -134 45.5t-50 118.5q0 66 35 115.5t98 72.5q-48 20 -117 20 q-82 0 -126.5 -48t-62.5 -158t-18 -310v-98h215v-41h-215v-94q0 -26 -4 -70h219v-41h-227q-15 -66 -46.5 -125t-71 -108.5t-109.5 -129.5q-67 -75 -99 -114q121 110 216 151.5t180 41.5q61 0 107 -7t104 -21q57 -12 94 -18t84 -6q60 0 97.5 33.5t37.5 83.5q0 55 -35 88.5 t-98 46.5l8 33q69 -12 128.5 -47t96.5 -93.5t37 -135.5q0 -149 -92 -229.5t-275 -80.5q-86 0 -161 18t-185 53q-97 32 -149 44q-9 2 -40 9t-60 7q-57 0 -113 -20q-38 -56 -83.5 -83.5t-90.5 -27.5q-56 0 -56 41z" />
<glyph unicode="&#xa4;" horiz-adv-x="1370" d="M99 281l140 139q-39 92 -39 194q0 101 39 193l-140 141l252 252l140 -141q93 41 192 41q92 0 195 -41l141 141l252 -252l-142 -141q39 -92 39 -193q0 -102 -41 -192l144 -141l-252 -252l-143 141q-94 -39 -193 -39q-101 0 -190 39l-142 -141zM495 614q0 -58 26 -108 t70 -79.5t96 -29.5t95.5 29.5t69.5 79.5t26 108q0 59 -26 109.5t-70 80.5t-95 30q-52 0 -96 -30t-70 -80.5t-26 -109.5z" />
<glyph unicode="&#xa5;" horiz-adv-x="1430" d="M49 1409v43q126 -12 282 -12q177 0 451 12v-43q-83 0 -124 -8t-41 -39q0 -13 9 -31l292 -562l93 185q97 194 97 305q0 145 -164 152v41q153 -6 268 -6q97 0 158 6v-41q-106 -52 -218 -272l-190 -377v-133h235v-41h-235v-164h235v-41h-235v-166q0 -77 11 -112t40 -48 t94 -16v-41q-118 6 -352 6q-243 0 -354 -6v41q66 3 95 16t39.5 47.5t10.5 112.5v166h-236v41h236v164h-236v41h217l-360 665q-33 60 -63.5 87.5t-54.5 27.5z" />
<glyph unicode="&#xa6;" horiz-adv-x="569" d="M161 -399v1067h246v-1067h-246zM161 786v971h246v-971h-246z" />
<glyph unicode="&#xa7;" horiz-adv-x="1290" d="M65 623q0 101 62 181.5t204 151.5q-82 72 -119 139.5t-37 149.5q0 108 68.5 188.5t190 124.5t278.5 44q174 0 280 -54q60 -32 90.5 -76t30.5 -116q0 -44 -22.5 -82t-64 -61t-93.5 -23q-84 0 -134 45.5t-50 118.5q0 59 31.5 108.5t82.5 71.5q-11 9 -50.5 19t-82.5 10 q-106 0 -156.5 -50t-50.5 -127q0 -67 23.5 -111.5t67 -79.5t138.5 -97l91 -60q146 -98 221.5 -158t118.5 -129t43 -157q0 -101 -62 -181.5t-204 -151.5q81 -72 118 -140t37 -150q0 -108 -68.5 -188.5t-190 -124t-277.5 -43.5q-173 0 -281 53q-60 32 -90.5 76t-30.5 117 q0 44 22.5 82t64 61t93.5 23q84 0 134.5 -45.5t50.5 -118.5q0 -60 -32 -109.5t-83 -70.5q10 -10 50 -19.5t83 -9.5q107 0 157 50t50 126q0 68 -23.5 113t-68 80.5t-139.5 96.5l-88 58q-147 98 -222 158t-118 129t-43 158zM359 799q0 -57 30 -103.5t102.5 -102.5t224.5 -155 q111 -72 189 -132q26 43 26 112q0 57 -30 103t-103 102.5t-224 154.5q-127 84 -189 133q-26 -44 -26 -112z" />
<glyph unicode="&#xa8;" horiz-adv-x="799" d="M-23 1403q0 46 24 87.5t65.5 66t89.5 24.5q46 0 87 -25t66 -66t25 -87q0 -48 -24.5 -89t-66 -65t-87.5 -24q-49 0 -90 24t-65 65t-24 89zM465 1403q0 46 24 87.5t65 66t89 24.5q46 0 87 -25t66 -66t25 -87q0 -48 -24.5 -89t-66 -65t-87.5 -24q-48 0 -89 24t-65 65t-24 89 z" />
<glyph unicode="&#xa9;" horiz-adv-x="1786" d="M77 786q0 222 109.5 409.5t296.5 297t409 109.5q221 0 408.5 -109.5t297 -297t109.5 -409.5q0 -221 -109.5 -408.5t-297 -297t-408.5 -109.5q-222 0 -409 109.5t-296.5 297t-109.5 408.5zM159 786q0 -203 98.5 -375t266.5 -273t368 -101q199 0 367.5 101t267 273 t98.5 375q0 204 -98.5 376t-267 273t-367.5 101q-200 0 -368 -101t-266.5 -273t-98.5 -376zM419 786q0 190 68 316t186 186t272 60q83 0 153 -18t118 -44q56 -35 89 -90t33 -123q0 -55 -25.5 -100.5t-70 -72t-100.5 -26.5q-89 0 -139 51t-50 134q0 74 48.5 129.5t119.5 75.5 q-19 13 -50.5 21.5t-65.5 8.5t-62 -8q-46 -14 -76.5 -61.5t-47.5 -146.5t-17 -263q0 -159 37 -254t94 -133.5t125 -38.5q149 0 248 199l34 -13q-28 -90 -83.5 -169t-142.5 -129t-202 -50q-223 0 -358 133.5t-135 425.5z" />
<glyph unicode="&#xaa;" horiz-adv-x="1014" d="M77 899q0 56 30 94t93 67t174 60q69 20 116.5 49.5t47.5 65.5v37q0 89 -30 128.5t-89 39.5q-52 0 -84 -23q50 -14 76 -52t26 -79q0 -64 -50 -100.5t-120 -36.5q-72 0 -115.5 36.5t-43.5 96.5q0 50 32.5 88.5t85.5 61.5q59 25 127 36t160 11q125 0 202 -27t113.5 -84 t36.5 -149v-353q0 -20 7 -28.5t24 -8.5q25 0 43 15l23 -31q-110 -76 -267 -76q-83 0 -118.5 24.5t-38.5 72.5q-50 -49 -115.5 -73t-134.5 -24q-97 0 -154 40.5t-57 121.5zM419 940q0 -40 16.5 -65t40.5 -25q36 0 62 20v306q-10 -25 -62 -82q-57 -63 -57 -154z" />
<glyph unicode="&#xab;" horiz-adv-x="1257" d="M44 510v41q165 110 312.5 241.5t314.5 303.5l28 -9q-19 -85 -60.5 -195.5t-92 -209.5t-94.5 -152q44 -52 94.5 -150.5t92 -209t60.5 -195.5l-28 -8q-165 170 -313 301t-314 242zM568 510v41q140 91 265.5 200.5t279.5 262.5l29 -8q-20 -110 -78.5 -257.5t-108.5 -218.5 q50 -70 108.5 -216.5t78.5 -256.5l-29 -8q-151 149 -277.5 259t-267.5 202z" />
<glyph unicode="&#xac;" horiz-adv-x="1294" d="M138 696v62h1026v-420h-73v358h-953z" />
<glyph unicode="&#xad;" horiz-adv-x="961" />
<glyph unicode="&#xae;" horiz-adv-x="1343" d="M99 1030q0 155 77 286.5t208.5 208.5t286.5 77t286 -77t208 -208.5t77 -286.5t-77 -286t-208 -208t-286 -77t-286.5 77t-208.5 208t-77 286zM185 1030q0 -136 65 -252.5t176.5 -185t244.5 -68.5q132 0 243.5 68.5t176.5 185t65 252.5q0 137 -65 253t-176 184.5t-244 68.5 t-244.5 -68.5t-176.5 -184.5t-65 -253zM376 721v31q21 2 30.5 7.5t13 20.5t3.5 47v449q0 33 -3.5 48.5t-13 21.5t-30.5 8v30q33 -2 147 -2l128 1q21 1 48 1q138 0 198 -40.5t60 -120.5q0 -51 -49.5 -97.5t-167.5 -65.5q70 -6 109.5 -20t58 -38t25.5 -62l35 -145 q5 -35 26 -35q12 0 23 8l12 -23q-41 -34 -119 -34q-144 0 -159 92l-27 147q-6 33 -14 50t-26 27t-54 14v-214q0 -32 3.5 -47t13 -20.5t30.5 -7.5v-31q-39 0 -61 1l-85 1l-99 -1q-22 -1 -56 -1zM630 1077h8q56 0 86.5 36t30.5 104q0 66 -22.5 101.5t-65.5 35.5q-21 0 -29 -11 t-8 -40v-226z" />
<glyph unicode="&#xaf;" horiz-adv-x="741" d="M10 1407v51h721v-51h-721z" />
<glyph unicode="&#xb0;" horiz-adv-x="608" d="M54 1434q0 73 34 129t91 86t123 30q67 0 124.5 -30t91.5 -86t34 -129q0 -75 -34 -131t-91.5 -86.5t-124.5 -30.5q-66 0 -123 30.5t-91 87t-34 130.5zM105 1432q0 -68 29 -116t74 -71.5t94 -23.5t94.5 23.5t75 71.5t29.5 116q0 66 -29.5 114.5t-75.5 73.5t-94 25 t-93.5 -25t-74.5 -73.5t-29 -114.5z" />
<glyph unicode="&#xb1;" horiz-adv-x="1161" d="M65 0v62h1026v-62h-1026zM66 0zM69 696v62h477v483h73v-483h476v-62h-476v-481h-73v481h-477z" />
<glyph unicode="&#xb2;" horiz-adv-x="735" d="M42 897v41q33 29 83 66q79 61 130.5 108t89 109t37.5 133q0 47 -30.5 74.5t-86.5 27.5q-107 0 -170 -90l-30 16q100 164 309 164q106 0 172.5 -38.5t66.5 -112.5q0 -50 -28.5 -89.5t-72.5 -70.5t-124 -79q-86 -52 -117 -73h281q31 0 49 7.5t27.5 21.5t19.5 41l35 -6 q-29 -167 -31 -256q-24 6 -78 6h-532z" />
<glyph unicode="&#xb3;" horiz-adv-x="684" d="M38 713v35q173 25 270 98t97 188q0 62 -29 104t-80 46q7 3 -19 -10q-40 -19 -57 -19q-31 0 -31 25q0 19 23.5 24.5t67.5 3.5q50 26 72 68.5t22 81.5q0 47 -32.5 77.5t-90.5 30.5q-52 0 -97 -26.5t-73 -71.5l-31 16q90 164 303 164q71 0 128 -17.5t90.5 -50.5t33.5 -79 q0 -72 -71 -122.5t-201 -72.5q10 1 31 1q74 0 135.5 -23.5t97 -66.5t35.5 -99q0 -140 -174 -213.5t-420 -91.5z" />
<glyph unicode="&#xb4;" horiz-adv-x="457" d="M40 1245q60 118 102 263q18 61 32.5 94t39.5 61q19 23 49 36t62 13q51 0 90 -33q42 -33 42 -92q0 -54 -34 -94q-23 -27 -50 -47t-82 -55q-128 -79 -229 -164z" />
<glyph unicode="&#xb6;" horiz-adv-x="1618" d="M62 737q0 209 100.5 371t289.5 253t446 91q92 0 250 -4q216 -3 208 -3q105 0 179 5v-39q-57 -3 -86.5 -18.5t-40 -43.5t-10.5 -77v-1426q0 -78 10.5 -112.5t39.5 -47.5t95 -16v-41q-144 6 -424 6q-233 0 -344 -6v41q87 3 130.5 21.5t60 58.5t16.5 117v106 q-481 0 -700.5 206t-219.5 558zM245 719q0 -8 89.5 -19.5t235 -20.5t308.5 -9q4 -147 24.5 -278t45.5 -212.5t36 -81.5v1245q-11 0 -36 -84t-45.5 -215.5t-24.5 -273.5q-161 0 -305.5 -10t-236 -22.5t-91.5 -18.5z" />
<glyph unicode="&#xb7;" horiz-adv-x="590" d="M91 593q0 87 52 132t151 45q98 0 150.5 -45t52.5 -132q0 -86 -52.5 -131t-150.5 -45q-99 0 -151 44.5t-52 131.5zM92 417z" />
<glyph unicode="&#xb8;" horiz-adv-x="467" d="M-25 -358l13 36q45 -10 98 -10q50 0 88.5 20t38.5 58q0 51 -57 51q-43 0 -68 -14l62 217h55l-35 -123q72 31 162 31q74 0 112.5 -33t38.5 -86q0 -86 -88.5 -130t-234.5 -44q-114 0 -185 27z" />
<glyph unicode="&#xb9;" horiz-adv-x="608" d="M52 1436v43q142 2 231 15.5t167 47.5v-504q0 -40 13.5 -61.5t42.5 -30t81 -8.5v-43q-102 4 -260 4t-260 -4v43q76 0 113.5 21.5t37.5 78.5v265q0 59 -14.5 87t-48 37t-103.5 9z" />
<glyph unicode="&#xba;" horiz-adv-x="979" d="M65 1108q0 119 53 202.5t148 126t222 42.5t222.5 -42.5t148.5 -126t53 -202.5t-53 -202.5t-148.5 -126t-222.5 -42.5t-222 42.5t-148 126t-53 202.5zM407 1108q0 -334 81 -334q82 0 82 334t-82 334q-81 0 -81 -334z" />
<glyph unicode="&#xbb;" horiz-adv-x="1257" d="M114 57q13 71 44.5 165t70.5 178t71 130q-32 46 -71 131t-70.5 179t-44.5 166l28 8q154 -153 279.5 -262.5t265.5 -200.5v-41q-141 -92 -267.5 -202t-277.5 -259zM556 -25q19 85 61 195.5t92.5 209t94.5 150.5q-44 53 -94.5 152t-92.5 209.5t-61 195.5l29 9 q164 -170 312.5 -302t313.5 -243v-41q-166 -111 -315 -243.5t-311 -299.5z" />
<glyph unicode="&#xbc;" horiz-adv-x="1475" d="M83 1436v43q142 2 231 15.5t167 47.5v-504q0 -40 13.5 -61.5t42.5 -30t81 -8.5v-43q-102 4 -260 4t-260 -4v43q76 0 113.5 21.5t37.5 78.5v265q0 59 -14.5 87t-48 37t-103.5 9zM84 0zM180 -86l1198 1774l39 -27l-1198 -1774zM592 37v43l531 571h43v-473h37q31 0 48.5 7.5 t27 21t20.5 41.5l35 -6q-21 -59 -29 -211q-25 6 -78 6h-61v-240h-170v240h-404zM728 178h268v289z" />
<glyph unicode="&#xbd;" horiz-adv-x="1503" d="M77 1436v43q142 2 231 15.5t167 47.5v-504q0 -40 13.5 -61.5t42.5 -30t81 -8.5v-43q-102 4 -260 4t-260 -4v43q76 0 113.5 21.5t37.5 78.5v265q0 59 -14.5 87t-48 37t-103.5 9zM78 0zM148 -86l1198 1774l39 -27l-1198 -1774zM798 2v41q33 29 83 66q79 61 130.5 108 t89 109t37.5 133q0 47 -30.5 74.5t-86.5 27.5q-107 0 -170 -90l-30 16q100 164 309 164q106 0 172.5 -38.5t66.5 -112.5q0 -50 -28.5 -89.5t-72.5 -70.5t-124 -79q-86 -52 -117 -73h281q31 0 49 7.5t27.5 21.5t19.5 41l35 -6q-29 -167 -31 -256q-24 6 -78 6h-532z" />
<glyph unicode="&#xbe;" horiz-adv-x="1552" d="M79 713v35q173 25 270 98t97 188q0 62 -29 104t-80 46q7 3 -19 -10q-40 -19 -57 -19q-31 0 -31 25q0 19 23.5 24.5t67.5 3.5q50 26 72 68.5t22 81.5q0 47 -32.5 77.5t-90.5 30.5q-52 0 -97 -26.5t-73 -71.5l-31 16q90 164 303 164q71 0 128 -17.5t90.5 -50.5t33.5 -79 q0 -72 -71 -122.5t-201 -72.5q10 1 31 1q74 0 135.5 -23.5t97 -66.5t35.5 -99q0 -140 -174 -213.5t-420 -91.5zM80 0zM258 -86l1198 1774l39 -27l-1198 -1774zM684 37v43l531 571h43v-473h37q31 0 48.5 7.5t27 21t20.5 41.5l35 -6q-21 -59 -29 -211q-25 6 -78 6h-61v-240 h-170v240h-404zM820 178h268v289z" />
<glyph unicode="&#xbf;" horiz-adv-x="1098" d="M54 -16q0 154 151.5 260t411.5 153v269h41v-287q-96 -48 -148 -108.5t-70.5 -130t-18.5 -158.5q0 -166 61 -246t166 -80q120 0 162 39q-67 25 -100 68.5t-33 111.5q0 48 24.5 87t69 62t102.5 23q50 0 88 -22.5t59 -60.5t21 -81q0 -70 -34.5 -116t-96.5 -80 q-57 -32 -139.5 -52t-183.5 -20q-159 0 -279.5 44.5t-187 128t-66.5 196.5zM435 917q0 87 52 132t151 45q98 0 150.5 -45t52.5 -132q0 -86 -52.5 -131t-150.5 -45q-99 0 -151 44.5t-52 131.5z" />
<glyph unicode="&#xc0;" horiz-adv-x="1417" d="M-43 0v41q50 8 95.5 63t92.5 177l455 1169q44 -4 108 -4t107 4l496 -1278q26 -66 58 -97.5t63 -33.5v-41q-148 6 -373 6q-234 0 -344 -6v41q77 3 110.5 19t33.5 56q0 31 -25 97l-122 336h-413l-35 -92q-66 -172 -66 -267q0 -84 46.5 -115t138.5 -34v-41q-153 6 -268 6 q-97 0 -158 -6zM0 0zM315 590h383l-186 512zM320 1806q0 27 12 54q19 38 54 57.5t76 19.5q33 0 63 -14q34 -16 59.5 -40.5t66.5 -74.5q97 -117 197 -202l-14 -25q-123 38 -274 62q-60 9 -95 17.5t-67 25.5q-36 18 -57 50.5t-21 69.5z" />
<glyph unicode="&#xc1;" horiz-adv-x="1417" d="M-43 0v41q50 8 95.5 63t92.5 177l455 1169q44 -4 108 -4t107 4l496 -1278q26 -66 58 -97.5t63 -33.5v-41q-148 6 -373 6q-234 0 -344 -6v41q77 3 110.5 19t33.5 56q0 31 -25 97l-122 336h-413l-35 -92q-66 -172 -66 -267q0 -84 46.5 -115t138.5 -34v-41q-153 6 -268 6 q-97 0 -158 -6zM0 0zM315 590h383l-186 512zM545 1606q100 85 197 202q43 51 68 75t59 40q28 14 63 14q40 0 75 -19.5t54 -57.5q12 -27 12 -54q0 -37 -20.5 -70t-56.5 -50q-32 -17 -67 -25.5t-96 -17.5q-154 -25 -274 -62z" />
<glyph unicode="&#xc2;" horiz-adv-x="1417" d="M-43 0v41q50 8 95.5 63t92.5 177l455 1169q44 -4 108 -4t107 4l496 -1278q26 -66 58 -97.5t63 -33.5v-41q-148 6 -373 6q-234 0 -344 -6v41q77 3 110.5 19t33.5 56q0 31 -25 97l-122 336h-413l-35 -92q-66 -172 -66 -267q0 -84 46.5 -115t138.5 -34v-41q-153 6 -268 6 q-97 0 -158 -6zM0 0zM248 1606q130 62 248.5 156.5t196.5 195.5h37q73 -98 192 -193.5t252 -158.5l-10 -31q-140 22 -276.5 56.5t-217.5 68.5q-68 -34 -182 -68.5t-229 -56.5zM315 590h383l-186 512z" />
<glyph unicode="&#xc3;" horiz-adv-x="1417" d="M-43 0v41q50 8 95.5 63t92.5 177l455 1169q44 -4 108 -4t107 4l496 -1278q26 -66 58 -97.5t63 -33.5v-41q-148 6 -373 6q-234 0 -344 -6v41q77 3 110.5 19t33.5 56q0 31 -25 97l-122 336h-413l-35 -92q-66 -172 -66 -267q0 -84 46.5 -115t138.5 -34v-41q-153 6 -268 6 q-97 0 -158 -6zM0 0zM216 1608q39 159 120.5 236t184.5 77q77 0 132 -18.5t120 -54.5q59 -31 102 -46.5t99 -15.5q115 0 198 108l29 -14q-39 -159 -120 -236t-183 -77q-78 0 -132.5 19t-122.5 55q-57 32 -100.5 47.5t-99.5 15.5q-114 0 -199 -111zM315 590h383l-186 512z " />
<glyph unicode="&#xc4;" horiz-adv-x="1417" d="M-43 0v41q50 8 95.5 63t92.5 177l455 1169q44 -4 108 -4t107 4l496 -1278q26 -66 58 -97.5t63 -33.5v-41q-148 6 -373 6q-234 0 -344 -6v41q77 3 110.5 19t33.5 56q0 31 -25 97l-122 336h-413l-35 -92q-66 -172 -66 -267q0 -84 46.5 -115t138.5 -34v-41q-153 6 -268 6 q-97 0 -158 -6zM0 0zM269 1739q0 46 24 87.5t65 66t89 24.5q46 0 87 -25t66 -66t25 -87q0 -48 -24.5 -89t-66 -65t-87.5 -24q-48 0 -89 24t-65 64.5t-24 89.5zM315 590h383l-186 512zM797 1739q0 46 24 87.5t65 66t89 24.5q46 0 87 -25t66 -66t25 -87q0 -48 -24.5 -89 t-66 -65t-87.5 -24q-48 0 -89 24t-65 64.5t-24 89.5z" />
<glyph unicode="&#xc5;" horiz-adv-x="1417" d="M-43 0v41q50 8 95.5 63t92.5 177l455 1169q44 -4 108 -4t107 4l496 -1278q26 -66 58 -97.5t63 -33.5v-41q-148 6 -373 6q-234 0 -344 -6v41q77 3 110.5 19t33.5 56q0 31 -25 97l-122 336h-413l-35 -92q-66 -172 -66 -267q0 -84 46.5 -115t138.5 -34v-41q-153 6 -268 6 q-97 0 -158 -6zM0 0zM315 590h383l-186 512zM473 1729q0 61 32.5 108t87 72.5t117.5 25.5q64 0 119 -25.5t88 -72.5t33 -108q0 -63 -33 -110.5t-88 -73t-119 -25.5q-63 0 -117.5 25.5t-87 73t-32.5 110.5zM530 1726q0 -52 26 -89t67.5 -55.5t86.5 -18.5q46 0 88 18.5 t68.5 55.5t26.5 89q0 51 -26.5 88.5t-69 57.5t-87.5 20q-44 0 -86 -20t-68 -57.5t-26 -88.5z" />
<glyph unicode="&#xc6;" horiz-adv-x="1868" d="M-35 0v41q34 2 67 31t74 100l682 1180q-13 31 -42 42.5t-91 14.5v41q59 -2 187 -4l78 135h49l-78 -135q165 -2 420 -2q301 0 428 6q-15 -181 -15 -303q0 -99 7 -148h-48q-30 215 -109 309.5t-185 94.5h-27q-64 0 -93.5 -12t-40.5 -46.5t-11 -111.5v-483h81q65 0 104.5 40 t57 88t35.5 121h47q-7 -94 -7 -179l1 -91q0 -96 12 -270h-47q-13 73 -34 126.5t-62 88.5t-107 35h-81v-492q0 -77 11 -111.5t40.5 -46.5t93.5 -12h68q57 0 118.5 44t110 143.5t65.5 257.5h48q-7 -70 -7 -189q0 -184 15 -303q-140 6 -469 6q-437 0 -656 -6v41q66 3 95.5 16 t40 48t10.5 112v492h-332l-285 -496q-36 -65 -36 -100q0 -36 34 -52.5t107 -19.5v-41q-62 6 -187 6q-88 0 -137 -6zM492 750h309v483q0 37 -1 53z" />
<glyph unicode="&#xc7;" horiz-adv-x="1468" d="M73 713q0 226 98.5 400t274 270t401.5 96q122 0 208.5 -35t168.5 -98q23 -18 40 -18q42 0 52 122h47q-8 -145 -8 -512h-47q-10 109 -28.5 182.5t-56.5 132t-104 101.5q-94 61 -190 61q-147 0 -232.5 -103.5t-119 -258.5t-33.5 -332t33.5 -332t119 -258.5t232.5 -103.5 q96 0 190 61q66 41 104 101t56.5 140.5t28.5 202.5h47q0 -381 8 -532h-47q-5 64 -16.5 92.5t-33.5 28.5q-16 0 -42 -17q-58 -41 -106.5 -67.5t-110 -44.5t-136.5 -21l-28 -94q81 31 182 31q84 0 128 -33t44 -86q0 -86 -105 -130t-280 -44q-126 0 -205 27l13 36 q55 -10 119 -10q76 0 132 20t56 58q0 51 -98 51q-43 0 -68 -14l55 188q-224 6 -391.5 96t-259.5 255t-92 391z" />
<glyph unicode="&#xc8;" horiz-adv-x="1331" d="M56 0v41q66 3 95.5 16t40 48t10.5 112v1016q0 77 -11 112t-40.5 48t-94.5 16v41q238 -6 717 -6q301 0 428 6q-14 -192 -14 -344q0 -95 6 -148h-47q-36 238 -136.5 341.5t-240.5 103.5h-27q-56 0 -81 -9t-34.5 -35.5t-9.5 -84.5v-524h21q73 0 131.5 41t96.5 103t51 126h47 q-8 -120 -8 -199l1 -92q0 -88 13 -291h-47q-13 77 -51.5 138.5t-98.5 97t-135 35.5h-21v-533q0 -59 9.5 -85t34.5 -35t81 -9h68q74 0 148.5 47t136 155.5t92.5 282.5h47q-6 -73 -6 -188q0 -209 14 -344q-139 6 -469 6q-479 0 -717 -6zM57 0zM264 1806q0 27 12 54 q19 38 54 57.5t76 19.5q33 0 63 -14q34 -16 59.5 -40.5t66.5 -74.5q97 -117 197 -202l-14 -25q-123 38 -274 62q-60 9 -95 17.5t-67 25.5q-36 18 -57 50.5t-21 69.5z" />
<glyph unicode="&#xc9;" horiz-adv-x="1331" d="M56 0v41q66 3 95.5 16t40 48t10.5 112v1016q0 77 -11 112t-40.5 48t-94.5 16v41q238 -6 717 -6q301 0 428 6q-14 -192 -14 -344q0 -95 6 -148h-47q-36 238 -136.5 341.5t-240.5 103.5h-27q-56 0 -81 -9t-34.5 -35.5t-9.5 -84.5v-524h21q73 0 131.5 41t96.5 103t51 126h47 q-8 -120 -8 -199l1 -92q0 -88 13 -291h-47q-13 77 -51.5 138.5t-98.5 97t-135 35.5h-21v-533q0 -59 9.5 -85t34.5 -35t81 -9h68q74 0 148.5 47t136 155.5t92.5 282.5h47q-6 -73 -6 -188q0 -209 14 -344q-139 6 -469 6q-479 0 -717 -6zM57 0zM489 1606q100 85 197 202 q43 51 68 75t59 40q28 14 63 14q40 0 75 -19.5t54 -57.5q12 -27 12 -54q0 -37 -20.5 -70t-56.5 -50q-32 -17 -67 -25.5t-96 -17.5q-154 -25 -274 -62z" />
<glyph unicode="&#xca;" horiz-adv-x="1331" d="M56 0v41q66 3 95.5 16t40 48t10.5 112v1016q0 77 -11 112t-40.5 48t-94.5 16v41q238 -6 717 -6q301 0 428 6q-14 -192 -14 -344q0 -95 6 -148h-47q-36 238 -136.5 341.5t-240.5 103.5h-27q-56 0 -81 -9t-34.5 -35.5t-9.5 -84.5v-524h21q73 0 131.5 41t96.5 103t51 126h47 q-8 -120 -8 -199l1 -92q0 -88 13 -291h-47q-13 77 -51.5 138.5t-98.5 97t-135 35.5h-21v-533q0 -59 9.5 -85t34.5 -35t81 -9h68q74 0 148.5 47t136 155.5t92.5 282.5h47q-6 -73 -6 -188q0 -209 14 -344q-139 6 -469 6q-479 0 -717 -6zM57 0zM192 1606q130 62 248.5 156.5 t196.5 195.5h37q73 -98 192 -193.5t252 -158.5l-10 -31q-140 22 -276.5 56.5t-217.5 68.5q-68 -34 -182 -68.5t-229 -56.5z" />
<glyph unicode="&#xcb;" horiz-adv-x="1331" d="M56 0v41q66 3 95.5 16t40 48t10.5 112v1016q0 77 -11 112t-40.5 48t-94.5 16v41q238 -6 717 -6q301 0 428 6q-14 -192 -14 -344q0 -95 6 -148h-47q-36 238 -136.5 341.5t-240.5 103.5h-27q-56 0 -81 -9t-34.5 -35.5t-9.5 -84.5v-524h21q73 0 131.5 41t96.5 103t51 126h47 q-8 -120 -8 -199l1 -92q0 -88 13 -291h-47q-13 77 -51.5 138.5t-98.5 97t-135 35.5h-21v-533q0 -59 9.5 -85t34.5 -35t81 -9h68q74 0 148.5 47t136 155.5t92.5 282.5h47q-6 -73 -6 -188q0 -209 14 -344q-139 6 -469 6q-479 0 -717 -6zM57 0zM213 1739q0 46 24 87.5t65 66 t89 24.5q46 0 87 -25t66 -66t25 -87q0 -48 -24.5 -89t-66 -65t-87.5 -24q-48 0 -89 24t-65 64.5t-24 89.5zM741 1739q0 46 24 87.5t65 66t89 24.5q46 0 87 -25t66 -66t25 -87q0 -48 -24.5 -89t-66 -65t-87.5 -24q-48 0 -89 24t-65 64.5t-24 89.5z" />
<glyph unicode="&#xcc;" horiz-adv-x="821" d="M31 0zM31 1806q0 27 12 54q19 38 54 57.5t76 19.5q33 0 63 -14q34 -16 59.5 -40.5t66.5 -74.5q97 -117 197 -202l-14 -25q-123 38 -274 62q-60 9 -95 17.5t-67 25.5q-36 18 -57 50.5t-21 69.5zM56 0v41q66 3 95.5 16t40 48t10.5 112v1016q0 77 -11 112t-40.5 48t-94.5 16 v41q117 -6 365 -6q222 0 342 6v-41q-66 -3 -95.5 -16t-40 -48t-10.5 -112v-1016q0 -77 11 -112t40.5 -48t94.5 -16v-41q-120 6 -342 6q-248 0 -365 -6z" />
<glyph unicode="&#xcd;" horiz-adv-x="821" d="M56 0v41q66 3 95.5 16t40 48t10.5 112v1016q0 77 -11 112t-40.5 48t-94.5 16v41q117 -6 365 -6q222 0 342 6v-41q-66 -3 -95.5 -16t-40 -48t-10.5 -112v-1016q0 -77 11 -112t40.5 -48t94.5 -16v-41q-120 6 -342 6q-248 0 -365 -6zM57 0zM256 1606q100 85 197 202 q43 51 68 75t59 40q28 14 63 14q40 0 75 -19.5t54 -57.5q12 -27 12 -54q0 -37 -20.5 -70t-56.5 -50q-32 -17 -67 -25.5t-96 -17.5q-154 -25 -274 -62z" />
<glyph unicode="&#xce;" horiz-adv-x="821" d="M-41 1606q130 62 248.5 156.5t196.5 195.5h37q73 -98 192 -193.5t252 -158.5l-10 -31q-140 22 -276.5 56.5t-217.5 68.5q-68 -34 -182 -68.5t-229 -56.5zM0 0zM56 0v41q66 3 95.5 16t40 48t10.5 112v1016q0 77 -11 112t-40.5 48t-94.5 16v41q117 -6 365 -6q222 0 342 6 v-41q-66 -3 -95.5 -16t-40 -48t-10.5 -112v-1016q0 -77 11 -112t40.5 -48t94.5 -16v-41q-120 6 -342 6q-248 0 -365 -6z" />
<glyph unicode="&#xcf;" horiz-adv-x="821" d="M-20 1739q0 46 24 87.5t65 66t89 24.5q46 0 87 -25t66 -66t25 -87q0 -48 -24.5 -89t-66 -65t-87.5 -24q-48 0 -89 24t-65 64.5t-24 89.5zM0 0zM56 0v41q66 3 95.5 16t40 48t10.5 112v1016q0 77 -11 112t-40.5 48t-94.5 16v41q117 -6 365 -6q222 0 342 6v-41 q-66 -3 -95.5 -16t-40 -48t-10.5 -112v-1016q0 -77 11 -112t40.5 -48t94.5 -16v-41q-120 6 -342 6q-248 0 -365 -6zM508 1739q0 46 24 87.5t65 66t89 24.5q46 0 87 -25t66 -66t25 -87q0 -48 -24.5 -89t-66 -65t-87.5 -24q-48 0 -89 24t-65 64.5t-24 89.5z" />
<glyph unicode="&#xd0;" horiz-adv-x="1661" d="M56 0v41q66 3 95.5 16t40 48t10.5 112v492h-146v41h146v483q0 77 -11 112t-40.5 48t-94.5 16v41q149 -7 280 -7l73 1l90 2q168 4 239 4q425 0 635.5 -181t210.5 -528q0 -223 -103 -390.5t-297.5 -259t-463.5 -91.5q-51 0 -128 3q-183 3 -179 3q-240 0 -357 -6zM617 213 q0 -74 12 -110.5t44.5 -51t97.5 -14.5q203 0 293 175t90 521q0 347 -93 513.5t-292 166.5q-64 0 -96 -14.5t-44 -51.5t-12 -110v-487h234v-41h-234v-496z" />
<glyph unicode="&#xd1;" horiz-adv-x="1499" d="M60 0v41q64 14 94.5 44t41 91.5t10.5 183.5v873q0 77 -11 112t-40.5 48t-94.5 16v41q62 -6 170 -6q113 0 189 6l837 -885v484q0 151 -12 217t-53.5 97.5t-140.5 45.5v41q83 -6 229 -6q109 0 170 6v-41q-64 -14 -94 -44t-40.5 -91.5t-10.5 -183.5v-1090q-30 3 -67 3 q-36 0 -77 -3l-907 991v-590q0 -151 12 -217t54 -97.5t141 -45.5v-41q-82 6 -230 6q-108 0 -170 -6zM61 0zM287 1608q39 159 120.5 236t184.5 77q77 0 132 -18.5t120 -54.5q59 -31 102 -46.5t99 -15.5q115 0 198 108l29 -14q-39 -159 -120 -236t-183 -77q-78 0 -132.5 19 t-122.5 55q-57 32 -100.5 47.5t-99.5 15.5q-114 0 -199 -111z" />
<glyph unicode="&#xd2;" d="M73 713q0 226 98.5 400t274 270t401.5 96q232 0 406 -88t270 -255.5t96 -398.5q0 -226 -98.5 -400t-274.5 -270t-401 -96q-232 0 -406 88t-270 255.5t-96 398.5zM74 0zM453 1806q0 27 12 54q19 38 54 57.5t76 19.5q33 0 63 -14q34 -16 59.5 -40.5t66.5 -74.5 q97 -117 197 -202l-14 -25q-123 38 -274 62q-60 9 -95 17.5t-67 25.5q-36 18 -57 50.5t-21 69.5zM503 721q0 -212 47 -374.5t127 -250.5t176 -88q101 0 177 91.5t117.5 255t41.5 374.5q0 212 -47 374.5t-127 250.5t-176 88q-101 0 -177 -91.5t-117.5 -255t-41.5 -374.5z" />
<glyph unicode="&#xd3;" d="M73 713q0 226 98.5 400t274 270t401.5 96q232 0 406 -88t270 -255.5t96 -398.5q0 -226 -98.5 -400t-274.5 -270t-401 -96q-232 0 -406 88t-270 255.5t-96 398.5zM74 0zM503 721q0 -212 47 -374.5t127 -250.5t176 -88q101 0 177 91.5t117.5 255t41.5 374.5 q0 212 -47 374.5t-127 250.5t-176 88q-101 0 -177 -91.5t-117.5 -255t-41.5 -374.5zM678 1606q100 85 197 202q43 51 68 75t59 40q28 14 63 14q40 0 75 -19.5t54 -57.5q12 -27 12 -54q0 -37 -20.5 -70t-56.5 -50q-32 -17 -67 -25.5t-96 -17.5q-154 -25 -274 -62z" />
<glyph unicode="&#xd4;" d="M73 713q0 226 98.5 400t274 270t401.5 96q232 0 406 -88t270 -255.5t96 -398.5q0 -226 -98.5 -400t-274.5 -270t-401 -96q-232 0 -406 88t-270 255.5t-96 398.5zM74 0zM381 1606q130 62 248.5 156.5t196.5 195.5h37q73 -98 192 -193.5t252 -158.5l-10 -31 q-140 22 -276.5 56.5t-217.5 68.5q-68 -34 -182 -68.5t-229 -56.5zM503 721q0 -212 47 -374.5t127 -250.5t176 -88q101 0 177 91.5t117.5 255t41.5 374.5q0 212 -47 374.5t-127 250.5t-176 88q-101 0 -177 -91.5t-117.5 -255t-41.5 -374.5z" />
<glyph unicode="&#xd5;" d="M73 713q0 226 98.5 400t274 270t401.5 96q232 0 406 -88t270 -255.5t96 -398.5q0 -226 -98.5 -400t-274.5 -270t-401 -96q-232 0 -406 88t-270 255.5t-96 398.5zM74 0zM349 1608q39 159 120.5 236t184.5 77q77 0 132 -18.5t120 -54.5q59 -31 102 -46.5t99 -15.5 q115 0 198 108l29 -14q-39 -159 -120 -236t-183 -77q-78 0 -132.5 19t-122.5 55q-57 32 -100.5 47.5t-99.5 15.5q-114 0 -199 -111zM503 721q0 -212 47 -374.5t127 -250.5t176 -88q101 0 177 91.5t117.5 255t41.5 374.5q0 212 -47 374.5t-127 250.5t-176 88 q-101 0 -177 -91.5t-117.5 -255t-41.5 -374.5z" />
<glyph unicode="&#xd6;" d="M73 713q0 226 98.5 400t274 270t401.5 96q232 0 406 -88t270 -255.5t96 -398.5q0 -226 -98.5 -400t-274.5 -270t-401 -96q-232 0 -406 88t-270 255.5t-96 398.5zM74 0zM402 1739q0 46 24 87.5t65 66t89 24.5q46 0 87 -25t66 -66t25 -87q0 -48 -24.5 -89t-66 -65 t-87.5 -24q-48 0 -89 24t-65 64.5t-24 89.5zM503 721q0 -212 47 -374.5t127 -250.5t176 -88q101 0 177 91.5t117.5 255t41.5 374.5q0 212 -47 374.5t-127 250.5t-176 88q-101 0 -177 -91.5t-117.5 -255t-41.5 -374.5zM930 1739q0 46 24 87.5t65 66t89 24.5q46 0 87 -25 t66 -66t25 -87q0 -48 -24.5 -89t-66 -65t-87.5 -24q-48 0 -89 24t-65 64.5t-24 89.5z" />
<glyph unicode="&#xd7;" horiz-adv-x="987" d="M91 1085l45 45l359 -358l354 354l45 -45l-354 -352l354 -354l-45 -45l-354 354l-357 -356l-45 45l357 354z" />
<glyph unicode="&#xd8;" d="M73 713q0 226 98.5 400t274 270t401.5 96q223 0 395 -83l141 208l39 -27l-137 -204q160 -91 247 -253.5t87 -382.5q0 -226 -98.5 -400t-274.5 -270t-401 -96q-247 0 -427 99l-173 -240l-43 29l172 238q-145 94 -223 250.5t-78 365.5zM503 721q0 -221 53 -396l550 882 q-49 113 -118.5 174t-148.5 61q-101 0 -177 -91.5t-117.5 -255t-41.5 -374.5zM577 264q49 -122 121 -189t155 -67q101 0 177 91.5t117.5 255t41.5 374.5q0 242 -62 422z" />
<glyph unicode="&#xd9;" horiz-adv-x="1419" d="M26 1409v41q115 -6 360 -6q241 0 367 6v-41q-74 -3 -107.5 -16t-46 -48t-12.5 -112v-836q0 -133 28 -210.5t84 -110.5t144 -33q195 0 276.5 137.5t81.5 392.5v476q0 151 -12 217t-54 97.5t-141 45.5v41q84 -6 230 -6q108 0 170 6v-41q-64 -14 -94.5 -44t-41 -91.5 t-10.5 -183.5v-494q0 -297 -84 -434q-114 -191 -440 -191q-247 0 -385 99q-68 49 -104.5 121t-50 167t-13.5 232v643q0 78 -10.5 112.5t-39.5 47.5t-95 16zM27 0zM348 1806q0 27 12 54q19 38 54 57.5t76 19.5q33 0 63 -14q34 -16 59.5 -40.5t66.5 -74.5q97 -117 197 -202 l-14 -25q-123 38 -274 62q-60 9 -95 17.5t-67 25.5q-36 18 -57 50.5t-21 69.5z" />
<glyph unicode="&#xda;" horiz-adv-x="1419" d="M26 1409v41q115 -6 360 -6q241 0 367 6v-41q-74 -3 -107.5 -16t-46 -48t-12.5 -112v-836q0 -133 28 -210.5t84 -110.5t144 -33q195 0 276.5 137.5t81.5 392.5v476q0 151 -12 217t-54 97.5t-141 45.5v41q84 -6 230 -6q108 0 170 6v-41q-64 -14 -94.5 -44t-41 -91.5 t-10.5 -183.5v-494q0 -297 -84 -434q-114 -191 -440 -191q-247 0 -385 99q-68 49 -104.5 121t-50 167t-13.5 232v643q0 78 -10.5 112.5t-39.5 47.5t-95 16zM27 0zM573 1606q100 85 197 202q43 51 68 75t59 40q28 14 63 14q40 0 75 -19.5t54 -57.5q12 -27 12 -54 q0 -37 -20.5 -70t-56.5 -50q-32 -17 -67 -25.5t-96 -17.5q-154 -25 -274 -62z" />
<glyph unicode="&#xdb;" horiz-adv-x="1419" d="M26 1409v41q115 -6 360 -6q241 0 367 6v-41q-74 -3 -107.5 -16t-46 -48t-12.5 -112v-836q0 -133 28 -210.5t84 -110.5t144 -33q195 0 276.5 137.5t81.5 392.5v476q0 151 -12 217t-54 97.5t-141 45.5v41q84 -6 230 -6q108 0 170 6v-41q-64 -14 -94.5 -44t-41 -91.5 t-10.5 -183.5v-494q0 -297 -84 -434q-114 -191 -440 -191q-247 0 -385 99q-68 49 -104.5 121t-50 167t-13.5 232v643q0 78 -10.5 112.5t-39.5 47.5t-95 16zM27 0zM276 1606q130 62 248.5 156.5t196.5 195.5h37q73 -98 192 -193.5t252 -158.5l-10 -31q-140 22 -276.5 56.5 t-217.5 68.5q-68 -34 -182 -68.5t-229 -56.5z" />
<glyph unicode="&#xdc;" horiz-adv-x="1419" d="M26 1409v41q115 -6 360 -6q241 0 367 6v-41q-74 -3 -107.5 -16t-46 -48t-12.5 -112v-836q0 -133 28 -210.5t84 -110.5t144 -33q195 0 276.5 137.5t81.5 392.5v476q0 151 -12 217t-54 97.5t-141 45.5v41q84 -6 230 -6q108 0 170 6v-41q-64 -14 -94.5 -44t-41 -91.5 t-10.5 -183.5v-494q0 -297 -84 -434q-114 -191 -440 -191q-247 0 -385 99q-68 49 -104.5 121t-50 167t-13.5 232v643q0 78 -10.5 112.5t-39.5 47.5t-95 16zM27 0zM297 1739q0 46 24 87.5t65 66t89 24.5q46 0 87 -25t66 -66t25 -87q0 -48 -24.5 -89t-66 -65t-87.5 -24 q-48 0 -89 24t-65 64.5t-24 89.5zM825 1739q0 46 24 87.5t65 66t89 24.5q46 0 87 -25t66 -66t25 -87q0 -48 -24.5 -89t-66 -65t-87.5 -24q-48 0 -89 24t-65 64.5t-24 89.5z" />
<glyph unicode="&#xdd;" horiz-adv-x="1319" d="M-18 1409v43q126 -12 282 -12q177 0 451 12v-43q-83 0 -124 -8t-41 -39q0 -13 9 -31l292 -562l93 185q97 194 97 305q0 145 -164 152v41q153 -6 268 -6q96 0 158 6v-41q-106 -52 -218 -272l-190 -377v-545q0 -77 11 -112t40 -48t94 -16v-41q-118 6 -352 6q-243 0 -354 -6 v41q66 3 95 16t39.5 47.5t10.5 112.5v377l-379 700q-33 60 -63.5 87.5t-54.5 27.5zM0 0zM547 1606q100 85 197 202q43 51 68 75t59 40q28 14 63 14q40 0 75 -19.5t54 -57.5q12 -27 12 -54q0 -37 -20.5 -70t-56.5 -50q-32 -17 -67 -25.5t-96 -17.5q-154 -25 -274 -62z" />
<glyph unicode="&#xde;" horiz-adv-x="1327" d="M56 0v41q66 3 95.5 16t40 48t10.5 112v1016q0 77 -11 112t-40.5 48t-94.5 16v41q117 -6 365 -6q222 0 342 6v-41q-66 -3 -95.5 -16t-40 -48t-10.5 -112v-60l66 1q313 0 464.5 -95t151.5 -295q0 -211 -149.5 -342t-511.5 -131h-21v-94q0 -77 11 -112t40.5 -48t94.5 -16 v-41q-120 6 -342 6q-248 0 -365 -6zM617 352q144 0 198 110t54 300t-54.5 281.5t-182.5 91.5h-15v-783z" />
<glyph unicode="&#xdf;" horiz-adv-x="1604" d="M6 0v41q65 3 94.5 16t40.5 48t11 112v383q0 342 184 508t528 166q399 0 619 -166l-283 -389q176 -72 265 -162t89 -213q0 -111 -72.5 -195.5t-196.5 -131t-273 -46.5q-81 0 -135.5 9.5t-102.5 31.5q-65 30 -98 89.5t-33 138.5q0 66 25.5 115t68.5 75.5t94 26.5 q52 0 91.5 -25t61.5 -70t22 -102q0 -80 -42 -138t-106 -91q26 -13 57 -13q54 0 101.5 33t77.5 108t30 195q0 170 -77.5 281t-241.5 182l268 395q-46 25 -158 25t-188 -44.5t-118 -157t-42 -310.5v-508q0 -72 5.5 -108t20.5 -51.5t46 -16.5v-41q-29 0 -97 2q-96 4 -204 4 q-215 0 -332 -6z" />
<glyph unicode="&#xe0;" horiz-adv-x="1298" d="M-35 0v41q48 8 91 61.5t98 178.5l419 964q31 -4 68 -4q39 0 68 4l491 -1073q61 -128 121 -131v-41q-105 6 -301 6q-248 0 -365 -6v41q63 3 94 21.5t31 58.5q0 37 -26 92l-101 233h-384q-68 -160 -68 -254q0 -83 49.5 -115.5t140.5 -35.5v-41q-153 6 -268 6q-96 0 -158 -6 zM0 0zM268 1614q0 28 12 53q19 38 54 57.5t76 19.5q36 0 63 -13q34 -16 60 -41t66 -74q100 -121 197 -203l-14 -24q-116 35 -274 61q-62 10 -96 18.5t-66 24.5q-36 18 -57 51t-21 70zM287 487h349l-175 403z" />
<glyph unicode="&#xe1;" horiz-adv-x="1298" d="M-35 0v41q48 8 91 61.5t98 178.5l419 964q31 -4 68 -4q39 0 68 4l491 -1073q61 -128 121 -131v-41q-105 6 -301 6q-248 0 -365 -6v41q63 3 94 21.5t31 58.5q0 37 -26 92l-101 233h-384q-68 -160 -68 -254q0 -83 49.5 -115.5t140.5 -35.5v-41q-153 6 -268 6q-96 0 -158 -6 zM0 0zM287 487h349l-175 403zM449 1413q101 86 198 203q41 50 66.5 74.5t59.5 40.5q26 13 62 13q41 0 76 -19.5t54 -57.5q12 -25 12 -53q0 -37 -21 -70t-57 -51q-32 -16 -66 -24.5t-96 -18.5q-158 -26 -274 -61z" />
<glyph unicode="&#xe2;" horiz-adv-x="1298" d="M-35 0v41q48 8 91 61.5t98 178.5l419 964q31 -4 68 -4q39 0 68 4l491 -1073q61 -128 121 -131v-41q-105 6 -301 6q-248 0 -365 -6v41q63 3 94 21.5t31 58.5q0 37 -26 92l-101 233h-384q-68 -160 -68 -254q0 -83 49.5 -115.5t140.5 -35.5v-41q-153 6 -268 6q-96 0 -158 -6 zM0 0zM194 1397q130 62 248.5 156.5t196.5 195.5h37q73 -98 192 -193.5t252 -158.5l-10 -31q-140 22 -276.5 56.5t-217.5 68.5q-68 -34 -182 -68.5t-229 -56.5zM287 487h349l-175 403z" />
<glyph unicode="&#xe3;" horiz-adv-x="1298" d="M-35 0v41q48 8 91 61.5t98 178.5l419 964q31 -4 68 -4q39 0 68 4l491 -1073q61 -128 121 -131v-41q-105 6 -301 6q-248 0 -365 -6v41q63 3 94 21.5t31 58.5q0 37 -26 92l-101 233h-384q-68 -160 -68 -254q0 -83 49.5 -115.5t140.5 -35.5v-41q-153 6 -268 6q-96 0 -158 -6 zM0 0zM159 1444q39 159 120.5 236t184.5 77q76 0 130 -18.5t123 -54.5q59 -31 101.5 -46.5t98.5 -15.5q116 0 198 109l29 -15q-39 -159 -120 -236t-183 -77q-78 0 -132.5 19t-122.5 55q-57 32 -100.5 47.5t-99.5 15.5q-114 0 -198 -110zM287 487h349l-175 403z" />
<glyph unicode="&#xe4;" horiz-adv-x="1298" d="M-35 0v41q48 8 91 61.5t98 178.5l419 964q31 -4 68 -4q39 0 68 4l491 -1073q61 -128 121 -131v-41q-105 6 -301 6q-248 0 -365 -6v41q63 3 94 21.5t31 58.5q0 37 -26 92l-101 233h-384q-68 -160 -68 -254q0 -83 49.5 -115.5t140.5 -35.5v-41q-153 6 -268 6q-96 0 -158 -6 zM0 0zM213 1589q0 46 24 87.5t65 66t89 24.5q46 0 87 -25t66 -66t25 -87q0 -48 -24.5 -89t-66 -65t-87.5 -24q-48 0 -89 24t-65 65t-24 89zM287 487h349l-175 403zM741 1589q0 46 24 87.5t65 66t89 24.5q46 0 87 -25t66 -66t25 -87q0 -48 -24.5 -89t-66 -65t-87.5 -24 q-48 0 -89 24t-65 65t-24 89z" />
<glyph unicode="&#xe5;" horiz-adv-x="1298" d="M-35 0v41q48 8 91 61.5t98 178.5l419 964q31 -4 68 -4q39 0 68 4l491 -1073q61 -128 121 -131v-41q-105 6 -301 6q-248 0 -365 -6v41q63 3 94 21.5t31 58.5q0 37 -26 92l-101 233h-384q-68 -160 -68 -254q0 -83 49.5 -115.5t140.5 -35.5v-41q-153 6 -268 6q-96 0 -158 -6 zM0 0zM287 487h349l-175 403zM417 1585q0 61 32.5 108.5t87 73t117.5 25.5q64 0 119 -25.5t88 -73t33 -108.5q0 -62 -33 -110t-88 -73.5t-119 -25.5q-63 0 -117.5 25.5t-87 73.5t-32.5 110zM474 1583q0 -52 26 -89.5t67.5 -56t86.5 -18.5q46 0 88 18.5t68.5 56t26.5 89.5 q0 51 -26.5 88.5t-69 57.5t-87.5 20q-44 0 -86 -20t-68 -57.5t-26 -88.5z" />
<glyph unicode="&#xe6;" horiz-adv-x="1753" d="M-31 0v41q63 3 142 131l608 1006q-15 13 -41 18.5t-70 7.5v41l150 -3l65 108h47l-66 -109q163 -2 419 -2q286 0 407 6q-14 -146 -14 -262q0 -80 6 -127h-47q-29 182 -99.5 262t-175.5 80h-26q-47 0 -73 -12t-39 -48.5t-13 -109.5v-381h27q51 0 81.5 22.5t45 54.5t30.5 88 q8 30 13 44h47q-8 -96 -8 -157l1 -72q0 -67 13 -230h-47q-21 81 -36 119.5t-47.5 64t-92.5 25.5h-27v-389q0 -73 13 -109.5t39 -48.5t73 -12h47q87 0 143.5 36.5t92.5 119.5t59 227h47q-6 -58 -6 -147q0 -125 14 -283q-133 6 -448 6q-408 0 -615 -6v41q66 3 95.5 16t40 48 t10.5 112v389h-332l-236 -393q-36 -60 -36 -97t35.5 -54.5t107.5 -20.5v-41q-62 6 -187 6q-85 0 -137 -6zM447 647h307v381q0 77 -11 111z" />
<glyph unicode="&#xe7;" horiz-adv-x="1366" d="M71 610q0 195 91 346t248 234.5t349 83.5q90 0 155 -17.5t109.5 -45t95.5 -70.5q25 -20 40 -20q42 0 52 124h48q-9 -118 -9 -430h-47q-15 79 -27 123.5t-29 75.5t-46 63q-57 63 -124.5 99t-139.5 36q-108 0 -188.5 -71.5t-124.5 -205.5t-44 -317q0 -184 48.5 -316.5 t133 -200.5t189.5 -68q75 0 147.5 36t124.5 99q41 50 59.5 108t35.5 175h47q0 -323 8 -451h-47q-10 124 -51 124q-16 0 -41 -20q-73 -60 -157.5 -95.5t-197.5 -37.5l-26 -94q81 31 182 31q84 0 128 -33t44 -86q0 -86 -105 -130t-280 -44q-126 0 -205 27l13 36 q55 -10 119 -10q76 0 132 20t56 58q0 51 -98 51q-43 0 -68 -14l53 189q-191 8 -339 85.5t-231 219t-83 333.5z" />
<glyph unicode="&#xe8;" horiz-adv-x="1268" d="M58 0v41q66 3 95.5 16t40 48t10.5 112v811q0 77 -11 112t-40.5 48t-94.5 16v41q226 -6 676 -6q287 0 408 6q-15 -156 -15 -262q0 -84 7 -127h-48q-41 183 -130 262.5t-226 79.5h-26q-39 0 -61 -8t-33 -31t-11 -69v-443h47q68 0 116.5 35.5t76.5 88t39 106.5h47 q-7 -76 -7 -157l1 -93q0 -100 12 -250h-47q-15 98 -76.5 163.5t-161.5 65.5h-47v-450q0 -46 11 -69.5t33 -31.5t61 -8h47q143 0 238.5 89.5t137.5 293.5h48q-7 -55 -7 -147q0 -113 15 -283q-133 6 -449 6q-450 0 -676 -6zM59 0zM240 1614q0 28 12 53q19 38 54 57.5t76 19.5 q36 0 63 -13q34 -16 60 -41t66 -74q100 -121 197 -203l-14 -24q-116 35 -274 61q-62 10 -96 18.5t-66 24.5q-36 18 -57 51t-21 70z" />
<glyph unicode="&#xe9;" horiz-adv-x="1268" d="M58 0v41q66 3 95.5 16t40 48t10.5 112v811q0 77 -11 112t-40.5 48t-94.5 16v41q226 -6 676 -6q287 0 408 6q-15 -156 -15 -262q0 -84 7 -127h-48q-41 183 -130 262.5t-226 79.5h-26q-39 0 -61 -8t-33 -31t-11 -69v-443h47q68 0 116.5 35.5t76.5 88t39 106.5h47 q-7 -76 -7 -157l1 -93q0 -100 12 -250h-47q-15 98 -76.5 163.5t-161.5 65.5h-47v-450q0 -46 11 -69.5t33 -31.5t61 -8h47q143 0 238.5 89.5t137.5 293.5h48q-7 -55 -7 -147q0 -113 15 -283q-133 6 -449 6q-450 0 -676 -6zM59 0zM421 1413q101 86 198 203q41 50 66.5 74.5 t59.5 40.5q26 13 62 13q41 0 76 -19.5t54 -57.5q12 -25 12 -53q0 -37 -21 -70t-57 -51q-32 -16 -66 -24.5t-96 -18.5q-158 -26 -274 -61z" />
<glyph unicode="&#xea;" horiz-adv-x="1268" d="M58 0v41q66 3 95.5 16t40 48t10.5 112v811q0 77 -11 112t-40.5 48t-94.5 16v41q226 -6 676 -6q287 0 408 6q-15 -156 -15 -262q0 -84 7 -127h-48q-41 183 -130 262.5t-226 79.5h-26q-39 0 -61 -8t-33 -31t-11 -69v-443h47q68 0 116.5 35.5t76.5 88t39 106.5h47 q-7 -76 -7 -157l1 -93q0 -100 12 -250h-47q-15 98 -76.5 163.5t-161.5 65.5h-47v-450q0 -46 11 -69.5t33 -31.5t61 -8h47q143 0 238.5 89.5t137.5 293.5h48q-7 -55 -7 -147q0 -113 15 -283q-133 6 -449 6q-450 0 -676 -6zM59 0zM166 1397q130 62 248.5 156.5t196.5 195.5h37 q73 -98 192 -193.5t252 -158.5l-10 -31q-140 22 -276.5 56.5t-217.5 68.5q-68 -34 -182 -68.5t-229 -56.5z" />
<glyph unicode="&#xeb;" horiz-adv-x="1268" d="M58 0v41q66 3 95.5 16t40 48t10.5 112v811q0 77 -11 112t-40.5 48t-94.5 16v41q226 -6 676 -6q287 0 408 6q-15 -156 -15 -262q0 -84 7 -127h-48q-41 183 -130 262.5t-226 79.5h-26q-39 0 -61 -8t-33 -31t-11 -69v-443h47q68 0 116.5 35.5t76.5 88t39 106.5h47 q-7 -76 -7 -157l1 -93q0 -100 12 -250h-47q-15 98 -76.5 163.5t-161.5 65.5h-47v-450q0 -46 11 -69.5t33 -31.5t61 -8h47q143 0 238.5 89.5t137.5 293.5h48q-7 -55 -7 -147q0 -113 15 -283q-133 6 -449 6q-450 0 -676 -6zM59 0zM185 1589q0 46 24 87.5t65 66t89 24.5 q46 0 87 -25t66 -66t25 -87q0 -48 -24.5 -89t-66 -65t-87.5 -24q-48 0 -89 24t-65 65t-24 89zM713 1589q0 46 24 87.5t65 66t89 24.5q46 0 87 -25t66 -66t25 -87q0 -48 -24.5 -89t-66 -65t-87.5 -24q-48 0 -89 24t-65 65t-24 89z" />
<glyph unicode="&#xec;" horiz-adv-x="805" d="M16 0zM16 1614q0 28 12 53q19 38 54 57.5t76 19.5q36 0 63 -13q34 -16 60 -41t66 -74q100 -121 197 -203l-14 -24q-116 35 -274 61q-62 10 -96 18.5t-66 24.5q-36 18 -57 51t-21 70zM58 0v41q66 3 95.5 16t40 48t10.5 112v811q0 77 -11 112t-40.5 48t-94.5 16v41 q111 -6 355 -6q219 0 331 6v-41q-66 -3 -95 -16t-39.5 -47.5t-10.5 -112.5v-811q0 -77 10.5 -112t39.5 -48t95 -16v-41q-112 6 -331 6q-244 0 -355 -6z" />
<glyph unicode="&#xed;" horiz-adv-x="805" d="M58 0v41q66 3 95.5 16t40 48t10.5 112v811q0 77 -11 112t-40.5 48t-94.5 16v41q111 -6 355 -6q219 0 331 6v-41q-66 -3 -95 -16t-39.5 -47.5t-10.5 -112.5v-811q0 -77 10.5 -112t39.5 -48t95 -16v-41q-112 6 -331 6q-244 0 -355 -6zM59 0zM197 1413q101 86 198 203 q41 50 66.5 74.5t59.5 40.5q26 13 62 13q41 0 76 -19.5t54 -57.5q12 -25 12 -53q0 -37 -21 -70t-57 -51q-32 -16 -66 -24.5t-96 -18.5q-158 -26 -274 -61z" />
<glyph unicode="&#xee;" horiz-adv-x="805" d="M-58 1397q130 62 248.5 156.5t196.5 195.5h37q73 -98 192 -193.5t252 -158.5l-10 -31q-140 22 -276.5 56.5t-217.5 68.5q-68 -34 -182 -68.5t-229 -56.5zM0 0zM58 0v41q66 3 95.5 16t40 48t10.5 112v811q0 77 -11 112t-40.5 48t-94.5 16v41q111 -6 355 -6q219 0 331 6 v-41q-66 -3 -95 -16t-39.5 -47.5t-10.5 -112.5v-811q0 -77 10.5 -112t39.5 -48t95 -16v-41q-112 6 -331 6q-244 0 -355 -6z" />
<glyph unicode="&#xef;" horiz-adv-x="805" d="M-39 1589q0 46 24 87.5t65 66t89 24.5q46 0 87 -25t66 -66t25 -87q0 -48 -24.5 -89t-66 -65t-87.5 -24q-48 0 -89 24t-65 65t-24 89zM0 0zM58 0v41q66 3 95.5 16t40 48t10.5 112v811q0 77 -11 112t-40.5 48t-94.5 16v41q111 -6 355 -6q219 0 331 6v-41q-66 -3 -95 -16 t-39.5 -47.5t-10.5 -112.5v-811q0 -77 10.5 -112t39.5 -48t95 -16v-41q-112 6 -331 6q-244 0 -355 -6zM489 1589q0 46 24 87.5t65 66t89 24.5q46 0 87 -25t66 -66t25 -87q0 -48 -24.5 -89t-66 -65t-87.5 -24q-48 0 -89 24t-65 65t-24 89z" />
<glyph unicode="&#xf0;" horiz-adv-x="1561" d="M58 0v41q66 3 95.5 16t40 48t10.5 112v389h-146v41h146v381q0 78 -11 113t-40 47.5t-95 15.5v41q126 -7 232 -7l59 1l102 2q190 4 269 4q383 0 573.5 -154t190.5 -452q0 -193 -93 -337t-269.5 -223t-420.5 -79q-56 0 -143 3q-210 3 -205 3q-196 0 -295 -6zM599 213 q0 -75 8.5 -111t32 -50.5t72.5 -14.5q138 0 217.5 67t112 196t32.5 331q0 199 -35 325t-114.5 189t-214.5 63q-48 0 -71 -14.5t-31.5 -51t-8.5 -110.5v-385h254v-41h-254v-393z" />
<glyph unicode="&#xf1;" horiz-adv-x="1419" d="M60 0v41q65 14 95 37.5t40.5 72.5t10.5 148v729q0 77 -11 112t-40.5 48t-94.5 16v41q62 -6 170 -6q168 0 291 6l654 -745v446q0 99 -18 148t-64.5 72.5t-145.5 37.5v41q102 -6 250 -6q109 0 170 6v-41q-65 -13 -94.5 -37t-40 -72.5t-10.5 -148.5v-946q-36 3 -75 3 q-37 0 -75 -3l-819 940v-641q0 -98 18 -147t64.5 -73t144.5 -38v-41q-100 6 -250 6q-108 0 -170 -6zM61 0zM297 1444q39 159 120.5 236t184.5 77q76 0 130 -18.5t123 -54.5q59 -31 101.5 -46.5t98.5 -15.5q116 0 198 109l29 -15q-39 -159 -120 -236t-183 -77 q-78 0 -132.5 19t-122.5 55q-57 32 -100.5 47.5t-99.5 15.5q-114 0 -198 -110z" />
<glyph unicode="&#xf2;" horiz-adv-x="1608" d="M71 610q0 196 93 347t260 234t380 83q219 0 384.5 -75.5t256 -219.5t90.5 -344q0 -196 -93.5 -346.5t-260 -234t-379.5 -83.5q-219 0 -384.5 75.5t-256 219.5t-90.5 344zM72 0zM414 1614q0 28 12 53q19 38 54 57.5t76 19.5q36 0 63 -13q34 -16 60 -41t66 -74 q100 -121 197 -203l-14 -24q-116 35 -274 61q-62 10 -96 18.5t-66 24.5q-36 18 -57 51t-21 70zM480 618q0 -182 44 -320.5t119.5 -214t166.5 -75.5q95 0 166.5 78.5t110 219t38.5 321.5q0 182 -44 321t-119 214t-166 75q-95 0 -166.5 -78.5t-110.5 -219t-39 -321.5z" />
<glyph unicode="&#xf3;" horiz-adv-x="1608" d="M71 610q0 196 93 347t260 234t380 83q219 0 384.5 -75.5t256 -219.5t90.5 -344q0 -196 -93.5 -346.5t-260 -234t-379.5 -83.5q-219 0 -384.5 75.5t-256 219.5t-90.5 344zM72 0zM480 618q0 -182 44 -320.5t119.5 -214t166.5 -75.5q95 0 166.5 78.5t110 219t38.5 321.5 q0 182 -44 321t-119 214t-166 75q-95 0 -166.5 -78.5t-110.5 -219t-39 -321.5zM595 1413q101 86 198 203q41 50 66.5 74.5t59.5 40.5q26 13 62 13q41 0 76 -19.5t54 -57.5q12 -25 12 -53q0 -37 -21 -70t-57 -51q-32 -16 -66 -24.5t-96 -18.5q-158 -26 -274 -61z" />
<glyph unicode="&#xf4;" horiz-adv-x="1608" d="M71 610q0 196 93 347t260 234t380 83q219 0 384.5 -75.5t256 -219.5t90.5 -344q0 -196 -93.5 -346.5t-260 -234t-379.5 -83.5q-219 0 -384.5 75.5t-256 219.5t-90.5 344zM72 0zM340 1397q130 62 248.5 156.5t196.5 195.5h37q73 -98 192 -193.5t252 -158.5l-10 -31 q-140 22 -276.5 56.5t-217.5 68.5q-68 -34 -182 -68.5t-229 -56.5zM480 618q0 -182 44 -320.5t119.5 -214t166.5 -75.5q95 0 166.5 78.5t110 219t38.5 321.5q0 182 -44 321t-119 214t-166 75q-95 0 -166.5 -78.5t-110.5 -219t-39 -321.5z" />
<glyph unicode="&#xf5;" horiz-adv-x="1608" d="M71 610q0 196 93 347t260 234t380 83q219 0 384.5 -75.5t256 -219.5t90.5 -344q0 -196 -93.5 -346.5t-260 -234t-379.5 -83.5q-219 0 -384.5 75.5t-256 219.5t-90.5 344zM72 0zM305 1444q39 159 120.5 236t184.5 77q76 0 130 -18.5t123 -54.5q59 -31 101.5 -46.5 t98.5 -15.5q116 0 198 109l29 -15q-39 -159 -120 -236t-183 -77q-78 0 -132.5 19t-122.5 55q-57 32 -100.5 47.5t-99.5 15.5q-114 0 -198 -110zM480 618q0 -182 44 -320.5t119.5 -214t166.5 -75.5q95 0 166.5 78.5t110 219t38.5 321.5q0 182 -44 321t-119 214t-166 75 q-95 0 -166.5 -78.5t-110.5 -219t-39 -321.5z" />
<glyph unicode="&#xf6;" horiz-adv-x="1608" d="M71 610q0 196 93 347t260 234t380 83q219 0 384.5 -75.5t256 -219.5t90.5 -344q0 -196 -93.5 -346.5t-260 -234t-379.5 -83.5q-219 0 -384.5 75.5t-256 219.5t-90.5 344zM72 0zM359 1589q0 46 24 87.5t65 66t89 24.5q46 0 87 -25t66 -66t25 -87q0 -48 -24.5 -89t-66 -65 t-87.5 -24q-48 0 -89 24t-65 65t-24 89zM480 618q0 -182 44 -320.5t119.5 -214t166.5 -75.5q95 0 166.5 78.5t110 219t38.5 321.5q0 182 -44 321t-119 214t-166 75q-95 0 -166.5 -78.5t-110.5 -219t-39 -321.5zM887 1589q0 46 24 87.5t65 66t89 24.5q46 0 87 -25t66 -66 t25 -87q0 -48 -24.5 -89t-66 -65t-87.5 -24q-48 0 -89 24t-65 65t-24 89z" />
<glyph unicode="&#xf7;" horiz-adv-x="1276" d="M130 696v62h1026v-62h-1026zM527 432q0 46 33.5 79.5t79.5 33.5q48 0 81.5 -33t33.5 -80t-33.5 -81t-81.5 -34q-46 0 -79.5 34t-33.5 81zM527 1022q0 46 33.5 79.5t79.5 33.5q48 0 81.5 -33.5t33.5 -79.5q0 -48 -33.5 -80.5t-81.5 -32.5q-46 0 -79.5 33t-33.5 80z" />
<glyph unicode="&#xf8;" horiz-adv-x="1608" d="M73 610q0 196 93 347t260 234t380 83q215 0 375 -71l131 190l39 -27l-126 -184q150 -79 231 -218t81 -329q0 -196 -93.5 -346.5t-260 -234t-379.5 -83.5q-211 0 -372 70l-144 -188l-37 28l137 181q-151 79 -233 218.5t-82 329.5zM482 618q0 -211 60 -366l511 776 q-45 100 -111.5 154.5t-143.5 54.5q-95 0 -166.5 -78.5t-110.5 -219t-39 -321.5zM566 196q46 -90 109.5 -139t136.5 -49q95 0 166.5 78.5t110 219t38.5 321.5q0 197 -52 345z" />
<glyph unicode="&#xf9;" horiz-adv-x="1374" d="M19 1204v41q111 -6 345 -6q222 0 342 6v-41q-66 -3 -95.5 -16t-40 -47.5t-10.5 -112.5v-514q0 -145 19.5 -240t81.5 -153t182 -58q171 0 241 124t70 345v312q0 151 -12 217.5t-54 98t-141 44.5v41q84 -6 230 -6q122 0 190 6v-41q-73 -13 -107.5 -43.5t-46.5 -92 t-12 -183.5v-330q0 -141 -19.5 -240.5t-64.5 -173.5q-51 -78 -150.5 -124t-224.5 -46q-242 0 -385 90q-78 54 -119 115.5t-57 148t-16 224.5v479q0 77 -11 112t-40.5 48t-94.5 16zM20 0zM326 1614q0 28 12 53q19 38 54 57.5t76 19.5q36 0 63 -13q34 -16 60 -41t66 -74 q100 -121 197 -203l-14 -24q-116 35 -274 61q-62 10 -96 18.5t-66 24.5q-36 18 -57 51t-21 70z" />
<glyph unicode="&#xfa;" horiz-adv-x="1374" d="M19 1204v41q111 -6 345 -6q222 0 342 6v-41q-66 -3 -95.5 -16t-40 -47.5t-10.5 -112.5v-514q0 -145 19.5 -240t81.5 -153t182 -58q171 0 241 124t70 345v312q0 151 -12 217.5t-54 98t-141 44.5v41q84 -6 230 -6q122 0 190 6v-41q-73 -13 -107.5 -43.5t-46.5 -92 t-12 -183.5v-330q0 -141 -19.5 -240.5t-64.5 -173.5q-51 -78 -150.5 -124t-224.5 -46q-242 0 -385 90q-78 54 -119 115.5t-57 148t-16 224.5v479q0 77 -11 112t-40.5 48t-94.5 16zM20 0zM507 1413q101 86 198 203q41 50 66.5 74.5t59.5 40.5q26 13 62 13q41 0 76 -19.5 t54 -57.5q12 -25 12 -53q0 -37 -21 -70t-57 -51q-32 -16 -66 -24.5t-96 -18.5q-158 -26 -274 -61z" />
<glyph unicode="&#xfb;" horiz-adv-x="1374" d="M19 1204v41q111 -6 345 -6q222 0 342 6v-41q-66 -3 -95.5 -16t-40 -47.5t-10.5 -112.5v-514q0 -145 19.5 -240t81.5 -153t182 -58q171 0 241 124t70 345v312q0 151 -12 217.5t-54 98t-141 44.5v41q84 -6 230 -6q122 0 190 6v-41q-73 -13 -107.5 -43.5t-46.5 -92 t-12 -183.5v-330q0 -141 -19.5 -240.5t-64.5 -173.5q-51 -78 -150.5 -124t-224.5 -46q-242 0 -385 90q-78 54 -119 115.5t-57 148t-16 224.5v479q0 77 -11 112t-40.5 48t-94.5 16zM20 0zM252 1397q130 62 248.5 156.5t196.5 195.5h37q73 -98 192 -193.5t252 -158.5l-10 -31 q-140 22 -276.5 56.5t-217.5 68.5q-68 -34 -182 -68.5t-229 -56.5z" />
<glyph unicode="&#xfc;" horiz-adv-x="1374" d="M19 1204v41q111 -6 345 -6q222 0 342 6v-41q-66 -3 -95.5 -16t-40 -47.5t-10.5 -112.5v-514q0 -145 19.5 -240t81.5 -153t182 -58q171 0 241 124t70 345v312q0 151 -12 217.5t-54 98t-141 44.5v41q84 -6 230 -6q122 0 190 6v-41q-73 -13 -107.5 -43.5t-46.5 -92 t-12 -183.5v-330q0 -141 -19.5 -240.5t-64.5 -173.5q-51 -78 -150.5 -124t-224.5 -46q-242 0 -385 90q-78 54 -119 115.5t-57 148t-16 224.5v479q0 77 -11 112t-40.5 48t-94.5 16zM20 0zM271 1589q0 46 24 87.5t65 66t89 24.5q46 0 87 -25t66 -66t25 -87q0 -48 -24.5 -89 t-66 -65t-87.5 -24q-48 0 -89 24t-65 65t-24 89zM799 1589q0 46 24 87.5t65 66t89 24.5q46 0 87 -25t66 -66t25 -87q0 -48 -24.5 -89t-66 -65t-87.5 -24q-48 0 -89 24t-65 65t-24 89z" />
<glyph unicode="&#xfd;" horiz-adv-x="1264" d="M-2 1202v43q126 -12 283 -12q159 0 409 12v-43q-120 0 -120 -52q0 -16 14 -42l253 -459l52 99q102 191 102 305q0 144 -164 151v41q155 -6 269 -6q96 0 157 6v-41q-47 -23 -98.5 -87t-118.5 -185l-176 -332v-362q0 -85 16 -124.5t58 -54.5t133 -18v-41q-114 6 -414 6 q-296 0 -395 -6v41q91 3 133 18t58 54.5t16 124.5v228l-348 621q-33 57 -59.5 83t-59.5 32zM0 0zM445 1413q101 86 198 203q41 50 66.5 74.5t59.5 40.5q26 13 62 13q41 0 76 -19.5t54 -57.5q12 -25 12 -53q0 -37 -21 -70t-57 -51q-32 -16 -66 -24.5t-96 -18.5 q-158 -26 -274 -61z" />
<glyph unicode="&#xfe;" horiz-adv-x="1266" d="M58 0v41q66 3 95.5 16t40 48t10.5 112v811q0 77 -11 112t-40.5 48t-94.5 16v41q111 -6 355 -6q219 0 331 6v-41q-66 -3 -95 -16t-39.5 -47.5t-10.5 -112.5v-25l64 1q189 0 318 -43t193 -120t64 -179q0 -99 -59 -188.5t-201.5 -149.5t-378.5 -60v-47q0 -77 10.5 -112 t39.5 -48t95 -16v-41q-112 6 -331 6q-244 0 -355 -6zM599 306q120 8 174.5 100t54.5 233q0 161 -55 243.5t-162 82.5h-12v-659z" />
<glyph unicode="&#xff;" horiz-adv-x="1264" d="M-2 1202v43q126 -12 283 -12q159 0 409 12v-43q-120 0 -120 -52q0 -16 14 -42l253 -459l52 99q102 191 102 305q0 144 -164 151v41q155 -6 269 -6q96 0 157 6v-41q-47 -23 -98.5 -87t-118.5 -185l-176 -332v-362q0 -85 16 -124.5t58 -54.5t133 -18v-41q-114 6 -414 6 q-296 0 -395 -6v41q91 3 133 18t58 54.5t16 124.5v228l-348 621q-33 57 -59.5 83t-59.5 32zM0 0zM209 1589q0 46 24 87.5t65 66t89 24.5q46 0 87 -25t66 -66t25 -87q0 -48 -24.5 -89t-66 -65t-87.5 -24q-48 0 -89 24t-65 65t-24 89zM737 1589q0 46 24 87.5t65 66t89 24.5 q46 0 87 -25t66 -66t25 -87q0 -48 -24.5 -89t-66 -65t-87.5 -24q-48 0 -89 24t-65 65t-24 89z" />
<glyph unicode="&#x152;" horiz-adv-x="2130" d="M73 713q0 226 96 400t267 270t390 96q87 0 179 -33q164 -1 311.5 -1.5t255.5 -0.5q301 0 428 6q-14 -169 -14 -303q0 -95 6 -148h-47q-30 215 -109.5 309.5t-185.5 94.5h-27q-64 0 -93.5 -12t-40.5 -46.5t-11 -111.5v-483h82q65 0 104 40t56.5 88t35.5 121h47 q-7 -94 -7 -179l1 -91q0 -96 12 -270h-47q-13 73 -33.5 126.5t-61.5 88.5t-107 35h-82v-492q0 -77 11 -111.5t40.5 -46.5t93.5 -12h68q57 0 118.5 44t110.5 143.5t66 257.5h47q-6 -75 -6 -189q0 -184 14 -303q-139 6 -469 6q-108 0 -256 -0.5t-311 -1.5q-95 -33 -181 -33 q-225 0 -394.5 88t-263 255.5t-93.5 398.5zM503 721q0 -213 44 -375t119 -250t167 -88q51 0 104 18.5t89 56t36 93.5v1077q0 73 -40 115t-95.5 58t-108.5 16q-95 0 -166 -91.5t-110 -255t-39 -374.5z" />
<glyph unicode="&#x153;" horiz-adv-x="1966" d="M75 610q0 198 79.5 348.5t226.5 233t345 82.5q80 0 180 -31q195 -4 529 -4q286 0 407 6q-14 -146 -14 -262q0 -80 6 -127h-47q-29 182 -99.5 262t-175.5 80h-26q-47 0 -73 -12t-39 -48.5t-13 -109.5v-381h27q51 0 81.5 22.5t45 54.5t30.5 88q8 30 13 44h47 q-8 -96 -8 -157l1 -72q0 -67 13 -230h-47q-21 81 -36 119.5t-47.5 64t-92.5 25.5h-27v-389q0 -73 13 -109.5t39 -48.5t73 -12h47q87 0 143.5 36.5t92.5 119.5t59 227h47q-6 -58 -6 -147q0 -125 14 -283q-133 6 -448 6q-353 0 -551 -4q-88 -31 -160 -31q-319 0 -484 165.5 t-165 473.5zM484 618q0 -200 32.5 -337.5t89 -205t126.5 -67.5q56 0 110 23.5t89 71t35 114.5v811q0 76 -38 123t-94.5 66.5t-115.5 19.5q-72 0 -124.5 -71t-81 -210t-28.5 -338z" />
<glyph unicode="&#x178;" horiz-adv-x="1319" d="M-18 1409v43q126 -12 282 -12q177 0 451 12v-43q-83 0 -124 -8t-41 -39q0 -13 9 -31l292 -562l93 185q97 194 97 305q0 145 -164 152v41q153 -6 268 -6q96 0 158 6v-41q-106 -52 -218 -272l-190 -377v-545q0 -77 11 -112t40 -48t94 -16v-41q-118 6 -352 6q-243 0 -354 -6 v41q66 3 95 16t39.5 47.5t10.5 112.5v377l-379 700q-33 60 -63.5 87.5t-54.5 27.5zM0 0zM271 1739q0 46 24 87.5t65 66t89 24.5q46 0 87 -25t66 -66t25 -87q0 -48 -24.5 -89t-66 -65t-87.5 -24q-48 0 -89 24t-65 64.5t-24 89.5zM799 1739q0 46 24 87.5t65 66t89 24.5 q46 0 87 -25t66 -66t25 -87q0 -48 -24.5 -89t-66 -65t-87.5 -24q-48 0 -89 24t-65 64.5t-24 89.5z" />
<glyph unicode="&#x2c6;" horiz-adv-x="823" d="M10 1270q112 73 213 189.5t170 244.5h37q65 -125 167 -242t216 -192l-16 -29q-122 22 -238.5 55.5t-187.5 67.5q-59 -34 -153 -67.5t-191 -55.5z" />
<glyph unicode="&#x2dc;" horiz-adv-x="842" d="M10 1300q34 170 104 252t160 82q63 0 107 -18.5t101 -54.5q48 -31 83 -46.5t80 -15.5q92 0 158 109l28 -15q-34 -169 -103.5 -251t-158.5 -82q-63 0 -108.5 19t-100.5 55q-47 31 -82.5 47t-80.5 16q-91 0 -158 -111z" />
<glyph unicode="&#x2000;" horiz-adv-x="979" />
<glyph unicode="&#x2001;" horiz-adv-x="1958" />
<glyph unicode="&#x2002;" horiz-adv-x="979" />
<glyph unicode="&#x2003;" horiz-adv-x="1958" />
<glyph unicode="&#x2004;" horiz-adv-x="652" />
<glyph unicode="&#x2005;" horiz-adv-x="489" />
<glyph unicode="&#x2006;" horiz-adv-x="326" />
<glyph unicode="&#x2007;" horiz-adv-x="326" />
<glyph unicode="&#x2008;" horiz-adv-x="244" />
<glyph unicode="&#x2009;" horiz-adv-x="391" />
<glyph unicode="&#x200a;" horiz-adv-x="108" />
<glyph unicode="&#x2010;" horiz-adv-x="961" d="M110 455v202h739v-202h-739z" />
<glyph unicode="&#x2011;" horiz-adv-x="961" d="M110 455v202h739v-202h-739z" />
<glyph unicode="&#x2012;" horiz-adv-x="961" d="M110 455v202h739v-202h-739z" />
<glyph unicode="&#x2013;" horiz-adv-x="1276" d="M110 414v284h1054v-284h-1054z" />
<glyph unicode="&#x2014;" horiz-adv-x="1878" d="M110 414v284h1656v-284h-1656z" />
<glyph unicode="&#x2018;" horiz-adv-x="543" d="M76 890zM77 1161q0 107 55 197t162 139l18 -37q-54 -25 -96 -71t-58 -97q-11 -36 -11 -68q0 -20 5 -45q55 64 150 64q82 0 131 -46.5t49 -129.5q0 -80 -53 -128.5t-139 -48.5q-54 0 -96 19.5t-66 56.5q-23 30 -37 82t-14 113z" />
<glyph unicode="&#x2019;" horiz-adv-x="528" d="M52 1302q0 80 53 128.5t139 48.5q54 0 96 -19.5t66 -56.5q23 -30 37 -82t14 -113q0 -107 -55 -197t-162 -139l-18 37q54 25 96 71t58 97q11 36 11 68q0 20 -5 45q-55 -64 -150 -64q-82 0 -131 46.5t-49 129.5zM53 872z" />
<glyph unicode="&#x201a;" horiz-adv-x="569" d="M83 147q0 80 53 128.5t139 48.5q54 0 96 -19.5t66 -56.5q23 -30 37 -82t14 -113q0 -107 -55 -197t-162 -139l-18 37q54 25 96 71t58 97q11 36 11 68q0 20 -5 45q-55 -64 -150 -64q-82 0 -131 46.5t-49 129.5zM84 0z" />
<glyph unicode="&#x201c;" horiz-adv-x="1014" d="M75 888zM76 1159q0 107 55.5 197t162.5 139l18 -37q-54 -25 -96 -71t-58 -97q-11 -36 -11 -68q0 -20 5 -45q55 64 150 64q82 0 131 -46.5t49 -129.5q0 -80 -53 -128.5t-140 -48.5q-53 0 -95 19.5t-66 56.5q-23 31 -37.5 82.5t-14.5 112.5zM548 1159q0 107 55 197t162 139 l18 -37q-54 -25 -96 -71t-58 -97q-11 -36 -11 -68q0 -20 5 -45q55 64 150 64q82 0 131 -46.5t49 -129.5q0 -80 -53 -128.5t-139 -48.5q-54 0 -96 19.5t-66 56.5q-23 30 -37 82t-14 113z" />
<glyph unicode="&#x201d;" horiz-adv-x="999" d="M52 1302q0 80 53 128.5t139 48.5q54 0 96 -19.5t66 -56.5q23 -30 37 -82t14 -113q0 -107 -55 -197t-162 -139l-18 37q54 25 96 71t58 97q11 36 11 68q0 20 -5 45q-55 -64 -150 -64q-82 0 -131 46.5t-49 129.5zM53 872zM523 1302q0 80 53 128.5t140 48.5q53 0 95 -19.5 t66 -56.5q23 -31 37.5 -82.5t14.5 -112.5q0 -107 -55.5 -197t-162.5 -139l-18 37q54 25 96 71t58 97q11 36 11 68q0 20 -5 45q-55 -64 -150 -64q-82 0 -131 46.5t-49 129.5z" />
<glyph unicode="&#x201e;" horiz-adv-x="1040" d="M83 147q0 80 53 128.5t139 48.5q54 0 96 -19.5t66 -56.5q23 -30 37 -82t14 -113q0 -107 -55 -197t-162 -139l-18 37q54 25 96 71t58 97q11 36 11 68q0 20 -5 45q-55 -64 -150 -64q-82 0 -131 46.5t-49 129.5zM554 147q0 80 53 128.5t140 48.5q53 0 95 -19.5t66 -56.5 q23 -31 37.5 -82.5t14.5 -112.5q0 -107 -55.5 -197t-162.5 -139l-18 37q54 25 96 71t58 97q11 36 11 68q0 20 -5 45q-55 -64 -150 -64q-82 0 -131 46.5t-49 129.5z" />
<glyph unicode="&#x2022;" horiz-adv-x="1055" d="M146 551q0 104 50.5 191.5t137.5 138.5t191 51t191.5 -51t138.5 -138.5t51 -191.5t-51 -191t-138.5 -137.5t-191.5 -50.5t-191 50.5t-137.5 137.5t-50.5 191z" />
<glyph unicode="&#x2026;" horiz-adv-x="1724" d="M85 147q0 87 52 132t151 45q98 0 150.5 -45t52.5 -132q0 -86 -52.5 -131t-150.5 -45q-99 0 -151 44.5t-52 131.5zM86 0zM660 147q0 87 52 132t151 45q98 0 150.5 -45t52.5 -132q0 -86 -52.5 -131t-150.5 -45q-99 0 -151 44.5t-52 131.5zM1234 147q0 87 52 132t151 45 q98 0 150.5 -45t52.5 -132q0 -86 -52.5 -131t-150.5 -45q-99 0 -151 44.5t-52 131.5z" />
<glyph unicode="&#x202f;" horiz-adv-x="391" />
<glyph unicode="&#x2039;" horiz-adv-x="788" d="M44 510v41q165 110 312.5 241.5t314.5 303.5l28 -9q-19 -85 -60.5 -195.5t-92 -209.5t-94.5 -152q44 -52 94.5 -150.5t92 -209t60.5 -195.5l-28 -8q-165 170 -313 301t-314 242z" />
<glyph unicode="&#x203a;" horiz-adv-x="791" d="M89 -25q19 85 61 195.5t92.5 209t94.5 150.5q-44 53 -94.5 152t-92.5 209.5t-61 195.5l29 9q164 -170 312.5 -302t313.5 -243v-41q-166 -111 -315 -243.5t-311 -299.5z" />
<glyph unicode="&#x205f;" horiz-adv-x="489" />
<glyph unicode="&#x20ac;" horiz-adv-x="1384" d="M60 608v41h150q-2 42 -2 64q0 47 5 100h-153v41h158q26 187 117.5 328.5t229.5 219t302 77.5q109 0 184.5 -14t135.5 -48q104 -60 104 -151q0 -72 -54.5 -115t-145.5 -43q-87 0 -136 39t-49 113q0 47 35 94t94 69q-54 17 -133 17q-131 0 -209 -154.5t-93 -431.5h419 l-23 -41h-397q-2 -60 -2 -92l1 -72h306l-24 -41h-281q11 -297 83.5 -447.5t219.5 -150.5q79 0 133 17q-60 21 -94.5 68.5t-34.5 94.5q0 74 49 113t136 39q91 0 145.5 -43t54.5 -115q0 -49 -27.5 -89.5t-76.5 -61.5q-135 -62 -320 -62q-187 0 -328 75t-225 218t-102 344h-152 z" />
<glyph unicode="&#x2122;" horiz-adv-x="2253" d="M122 1450q121 -6 414 -6q290 0 411 6q-14 -112 -14 -201q0 -67 6 -106h-47q-15 92 -43.5 150.5t-62 84t-66.5 25.5h-49v-612q0 -60 10.5 -86t39 -36t95.5 -14v-41q-129 7 -280 7q-176 0 -283 -7v41q67 4 95.5 14t39 36t10.5 86v612h-49q-33 0 -66.5 -25.5t-62 -84 t-43.5 -150.5h-47q6 36 6 106q0 89 -14 201zM1023 614v41q48 4 68.5 12t28 30t7.5 73v524q0 51 -7.5 73.5t-28 30.5t-68.5 11v41q83 -6 252 -6q72 0 139 6l182 -453l170 447h158q143 0 219 6v-41q-48 -3 -68.5 -11t-28 -30.5t-7.5 -73.5v-524q0 -51 7.5 -73t28 -30t68.5 -12 v-41q-110 7 -239 7q-135 0 -222 -7v41q38 4 54.5 12t23 30.5t6.5 72.5v545l-268 -711h-33l-290 715v-549q0 -50 6.5 -72.5t23 -30.5t54.5 -12v-41q-51 7 -107 7q-75 0 -129 -7z" />
<glyph unicode="&#x25fc;" horiz-adv-x="1245" d="M0 0v1245h1245v-1245h-1245z" />
</font>
</defs>
</svg>
